<mxfile host="app.diagrams.net" modified="2023-08-20T22:05:24.647Z" agent="Mozilla/5.0 (Windows NT 10.0; Win64; x64) AppleWebKit/537.36 (KHTML, like Gecko) Chrome/115.0.0.0 Safari/537.36" etag="PzyBv5k7sCx8LJZXa7KQ" version="21.6.8" type="google" pages="2">
  <diagram id="fc1f3b67-3c9b-b1b3-7705-706421d27264" name="ERD Habit Tracker app">
    <mxGraphModel dx="1969" dy="904" grid="1" gridSize="10" guides="1" tooltips="1" connect="1" arrows="1" fold="1" page="1" pageScale="1" pageWidth="850" pageHeight="1100" math="0" shadow="0">
      <root>
        <mxCell id="0" />
        <mxCell id="1" parent="0" />
        <mxCell id="Re7R5-p3Bq7VHOhCyrpi-33" style="rounded=0;orthogonalLoop=1;jettySize=auto;html=1;entryX=1.035;entryY=0.533;entryDx=0;entryDy=0;entryPerimeter=0;exitX=0.75;exitY=0;exitDx=0;exitDy=0;" parent="1" target="nd5mDW07AQeA4QpzedI7-6" edge="1" source="4cd4486c729dc68b-1">
          <mxGeometry relative="1" as="geometry">
            <mxPoint x="124.5945945945946" y="135.55555555555554" as="sourcePoint" />
            <mxPoint x="33.670000000000016" y="122.28809999999999" as="targetPoint" />
          </mxGeometry>
        </mxCell>
        <mxCell id="4cd4486c729dc68b-1" value="Hoteles" style="strokeWidth=2;whiteSpace=wrap;html=1;align=center;fontSize=13;fontFamily=Helvetica;fontColor=#000000;strokeColor=#d79b00;fillColor=#ffe6cc;" parent="1" vertex="1">
          <mxGeometry x="106.47378378378379" y="135.55555555555554" width="50.13513513513514" height="54.44444444444444" as="geometry" />
        </mxCell>
        <mxCell id="Re7R5-p3Bq7VHOhCyrpi-34" style="rounded=0;orthogonalLoop=1;jettySize=auto;html=1;exitX=0.75;exitY=0;exitDx=0;exitDy=0;entryX=0.5;entryY=1;entryDx=0;entryDy=0;" parent="1" source="4cd4486c729dc68b-1" target="nd5mDW07AQeA4QpzedI7-7" edge="1">
          <mxGeometry relative="1" as="geometry">
            <mxPoint x="44" y="79" as="targetPoint" />
          </mxGeometry>
        </mxCell>
        <mxCell id="Re7R5-p3Bq7VHOhCyrpi-35" style="rounded=0;orthogonalLoop=1;jettySize=auto;html=1;exitX=0.75;exitY=0;exitDx=0;exitDy=0;entryX=0.5;entryY=1;entryDx=0;entryDy=0;" parent="1" source="4cd4486c729dc68b-1" target="nd5mDW07AQeA4QpzedI7-11" edge="1">
          <mxGeometry relative="1" as="geometry">
            <mxPoint x="98.68" y="54.821709999999996" as="targetPoint" />
          </mxGeometry>
        </mxCell>
        <mxCell id="Re7R5-p3Bq7VHOhCyrpi-36" style="rounded=0;orthogonalLoop=1;jettySize=auto;html=1;exitX=0.75;exitY=0;exitDx=0;exitDy=0;entryX=0.5;entryY=1;entryDx=0;entryDy=0;" parent="1" source="4cd4486c729dc68b-1" target="nd5mDW07AQeA4QpzedI7-16" edge="1">
          <mxGeometry relative="1" as="geometry">
            <mxPoint x="155.38795" y="102.93623000000002" as="targetPoint" />
          </mxGeometry>
        </mxCell>
        <mxCell id="Re7R5-p3Bq7VHOhCyrpi-45" value="Habitaciones" style="strokeWidth=2;whiteSpace=wrap;html=1;align=center;fontSize=13;fontFamily=Helvetica;fontColor=#000000;strokeColor=#d79b00;fillColor=#ffe6cc;" parent="1" vertex="1">
          <mxGeometry x="382.43" y="135.56" width="87.57" height="54.44" as="geometry" />
        </mxCell>
        <mxCell id="Re7R5-p3Bq7VHOhCyrpi-41" style="rounded=0;orthogonalLoop=1;jettySize=auto;html=1;exitX=0.212;exitY=0.011;exitDx=0;exitDy=0;entryX=0.5;entryY=1;entryDx=0;entryDy=0;exitPerimeter=0;" parent="1" source="Re7R5-p3Bq7VHOhCyrpi-45" target="nd5mDW07AQeA4QpzedI7-20" edge="1">
          <mxGeometry relative="1" as="geometry">
            <mxPoint x="475.54364999999996" y="86.89684" as="targetPoint" />
          </mxGeometry>
        </mxCell>
        <mxCell id="Re7R5-p3Bq7VHOhCyrpi-40" style="rounded=0;orthogonalLoop=1;jettySize=auto;html=1;entryX=1;entryY=0.5;entryDx=0;entryDy=0;exitX=0.212;exitY=0.03;exitDx=0;exitDy=0;exitPerimeter=0;" parent="1" source="Re7R5-p3Bq7VHOhCyrpi-45" target="nd5mDW07AQeA4QpzedI7-19" edge="1">
          <mxGeometry relative="1" as="geometry">
            <mxPoint x="400" y="130" as="sourcePoint" />
            <mxPoint x="383.66999999999996" y="71.0838" as="targetPoint" />
          </mxGeometry>
        </mxCell>
        <mxCell id="Re7R5-p3Bq7VHOhCyrpi-64" value="" style="group" parent="1" vertex="1" connectable="0">
          <mxGeometry x="200" y="135.56" width="90" height="54.44" as="geometry" />
        </mxCell>
        <mxCell id="4a63a70a29bb4ada-22" value="EstÃ¡" style="shape=rhombus;strokeWidth=2;fontSize=13;perimeter=rhombusPerimeter;whiteSpace=wrap;html=1;align=center;fillColor=#d5e8d4;strokeColor=#82b366;" parent="Re7R5-p3Bq7VHOhCyrpi-64" vertex="1">
          <mxGeometry width="83.07692307692307" height="54.44" as="geometry" />
        </mxCell>
        <mxCell id="nd5mDW07AQeA4QpzedI7-34" value="" style="shape=waypoint;sketch=0;fillStyle=solid;size=6;pointerEvents=1;points=[];fillColor=none;resizable=0;rotatable=0;perimeter=centerPerimeter;snapToPoint=1;" parent="Re7R5-p3Bq7VHOhCyrpi-64" vertex="1">
          <mxGeometry x="76.15384615384615" y="17.22" width="20" height="20" as="geometry" />
        </mxCell>
        <mxCell id="Re7R5-p3Bq7VHOhCyrpi-86" value="" style="endArrow=none;html=1;rounded=0;entryX=0;entryY=0.5;entryDx=0;entryDy=0;exitX=1;exitY=0.5;exitDx=0;exitDy=0;" parent="1" source="Re7R5-p3Bq7VHOhCyrpi-45" target="Re7R5-p3Bq7VHOhCyrpi-90" edge="1">
          <mxGeometry relative="1" as="geometry">
            <mxPoint x="560.645" y="70" as="sourcePoint" />
            <mxPoint x="847.4300000000001" y="43" as="targetPoint" />
          </mxGeometry>
        </mxCell>
        <mxCell id="Re7R5-p3Bq7VHOhCyrpi-87" value="N" style="resizable=0;html=1;whiteSpace=wrap;align=left;verticalAlign=bottom;" parent="Re7R5-p3Bq7VHOhCyrpi-86" connectable="0" vertex="1">
          <mxGeometry x="-1" relative="1" as="geometry">
            <mxPoint y="-3" as="offset" />
          </mxGeometry>
        </mxCell>
        <mxCell id="Re7R5-p3Bq7VHOhCyrpi-88" value="" style="resizable=0;html=1;whiteSpace=wrap;align=right;verticalAlign=bottom;" parent="Re7R5-p3Bq7VHOhCyrpi-86" connectable="0" vertex="1">
          <mxGeometry x="1" relative="1" as="geometry" />
        </mxCell>
        <mxCell id="Re7R5-p3Bq7VHOhCyrpi-89" value="" style="group" parent="1" vertex="1" connectable="0">
          <mxGeometry x="530" y="135.56" width="61.3" height="54.44" as="geometry" />
        </mxCell>
        <mxCell id="Re7R5-p3Bq7VHOhCyrpi-90" value="Es" style="shape=rhombus;strokeWidth=2;fontSize=13;perimeter=rhombusPerimeter;whiteSpace=wrap;html=1;align=center;fillColor=#d5e8d4;strokeColor=#82b366;" parent="Re7R5-p3Bq7VHOhCyrpi-89" vertex="1">
          <mxGeometry width="61.300000000000004" height="54.44" as="geometry" />
        </mxCell>
        <mxCell id="Re7R5-p3Bq7VHOhCyrpi-98" value="" style="endArrow=none;html=1;rounded=0;exitX=1;exitY=0.5;exitDx=0;exitDy=0;entryX=0;entryY=0.5;entryDx=0;entryDy=0;" parent="1" source="Re7R5-p3Bq7VHOhCyrpi-90" target="Re7R5-p3Bq7VHOhCyrpi-106" edge="1">
          <mxGeometry relative="1" as="geometry">
            <mxPoint x="764.4300000000001" y="61" as="sourcePoint" />
            <mxPoint x="844.4300000000001" y="33.77999999999997" as="targetPoint" />
          </mxGeometry>
        </mxCell>
        <mxCell id="Re7R5-p3Bq7VHOhCyrpi-99" value="1" style="resizable=0;html=1;whiteSpace=wrap;align=right;verticalAlign=bottom;" parent="Re7R5-p3Bq7VHOhCyrpi-98" connectable="0" vertex="1">
          <mxGeometry x="1" relative="1" as="geometry" />
        </mxCell>
        <mxCell id="Re7R5-p3Bq7VHOhCyrpi-103" value="" style="endArrow=none;html=1;rounded=0;entryX=0;entryY=0.5;entryDx=0;entryDy=0;exitX=0.248;exitY=0.539;exitDx=0;exitDy=0;exitPerimeter=0;" parent="1" source="nd5mDW07AQeA4QpzedI7-34" target="Re7R5-p3Bq7VHOhCyrpi-45" edge="1">
          <mxGeometry relative="1" as="geometry">
            <mxPoint x="322" y="163" as="sourcePoint" />
            <mxPoint x="330" y="230" as="targetPoint" />
          </mxGeometry>
        </mxCell>
        <mxCell id="Re7R5-p3Bq7VHOhCyrpi-104" value="" style="resizable=0;html=1;whiteSpace=wrap;align=left;verticalAlign=bottom;" parent="Re7R5-p3Bq7VHOhCyrpi-103" connectable="0" vertex="1">
          <mxGeometry x="-1" relative="1" as="geometry" />
        </mxCell>
        <mxCell id="Re7R5-p3Bq7VHOhCyrpi-105" value="N" style="resizable=0;html=1;whiteSpace=wrap;align=right;verticalAlign=bottom;" parent="Re7R5-p3Bq7VHOhCyrpi-103" connectable="0" vertex="1">
          <mxGeometry x="1" relative="1" as="geometry" />
        </mxCell>
        <mxCell id="Re7R5-p3Bq7VHOhCyrpi-106" value="TiposHabitacion" style="strokeWidth=2;whiteSpace=wrap;html=1;align=center;fontSize=13;fontFamily=Helvetica;fontColor=#000000;strokeColor=#d79b00;fillColor=#ffe6cc;" parent="1" vertex="1">
          <mxGeometry x="620.0000000000001" y="135.56" width="96.87" height="54.44" as="geometry" />
        </mxCell>
        <mxCell id="Re7R5-p3Bq7VHOhCyrpi-108" style="rounded=0;orthogonalLoop=1;jettySize=auto;html=1;exitX=1;exitY=0.5;exitDx=0;exitDy=0;entryX=0;entryY=0.5;entryDx=0;entryDy=0;" parent="1" source="Re7R5-p3Bq7VHOhCyrpi-106" target="nd5mDW07AQeA4QpzedI7-24" edge="1">
          <mxGeometry relative="1" as="geometry">
            <mxPoint x="720.0000000000001" y="158" as="sourcePoint" />
            <mxPoint x="760.0000000000001" y="158.2199999999999" as="targetPoint" />
          </mxGeometry>
        </mxCell>
        <mxCell id="Re7R5-p3Bq7VHOhCyrpi-110" style="rounded=0;orthogonalLoop=1;jettySize=auto;html=1;entryX=0.496;entryY=0.09;entryDx=0;entryDy=0;exitX=0.75;exitY=1;exitDx=0;exitDy=0;entryPerimeter=0;" parent="1" source="Re7R5-p3Bq7VHOhCyrpi-106" target="nd5mDW07AQeA4QpzedI7-22" edge="1">
          <mxGeometry relative="1" as="geometry">
            <mxPoint x="690" y="190" as="sourcePoint" />
            <mxPoint x="693.0000000000001" y="-42" as="targetPoint" />
          </mxGeometry>
        </mxCell>
        <mxCell id="Re7R5-p3Bq7VHOhCyrpi-112" style="rounded=0;orthogonalLoop=1;jettySize=auto;html=1;exitX=0.75;exitY=1;exitDx=0;exitDy=0;entryX=0.5;entryY=0;entryDx=0;entryDy=0;" parent="1" source="Re7R5-p3Bq7VHOhCyrpi-106" target="nd5mDW07AQeA4QpzedI7-23" edge="1">
          <mxGeometry relative="1" as="geometry">
            <mxPoint x="772.056756756757" y="-21.280000000000086" as="targetPoint" />
          </mxGeometry>
        </mxCell>
        <mxCell id="nd5mDW07AQeA4QpzedI7-3" style="rounded=0;orthogonalLoop=1;jettySize=auto;html=1;exitX=0.5;exitY=0;exitDx=0;exitDy=0;entryX=0.5;entryY=1;entryDx=0;entryDy=0;" parent="1" source="nd5mDW07AQeA4QpzedI7-16" target="nd5mDW07AQeA4QpzedI7-14" edge="1">
          <mxGeometry relative="1" as="geometry">
            <mxPoint x="160.42808999999994" y="80.09467999999998" as="sourcePoint" />
            <mxPoint x="188.85353999999995" y="42.076640000000054" as="targetPoint" />
          </mxGeometry>
        </mxCell>
        <mxCell id="nd5mDW07AQeA4QpzedI7-4" style="rounded=0;orthogonalLoop=1;jettySize=auto;html=1;exitX=0.5;exitY=0;exitDx=0;exitDy=0;entryX=0.5;entryY=1;entryDx=0;entryDy=0;" parent="1" source="nd5mDW07AQeA4QpzedI7-16" target="nd5mDW07AQeA4QpzedI7-15" edge="1">
          <mxGeometry relative="1" as="geometry">
            <mxPoint x="161.44973999999996" y="79.21888999999999" as="sourcePoint" />
            <mxPoint x="240" y="40" as="targetPoint" />
          </mxGeometry>
        </mxCell>
        <mxCell id="nd5mDW07AQeA4QpzedI7-6" value="&lt;u style=&quot;border-color: var(--border-color); text-align: left;&quot;&gt;&lt;font style=&quot;border-color: var(--border-color); font-size: 8px;&quot;&gt;CodigoHotel&lt;/font&gt;&lt;/u&gt;" style="text;html=1;strokeColor=none;fillColor=none;align=center;verticalAlign=middle;whiteSpace=wrap;rounded=0;" parent="1" vertex="1">
          <mxGeometry x="9.58" y="106.11" width="50" height="20" as="geometry" />
        </mxCell>
        <mxCell id="nd5mDW07AQeA4QpzedI7-7" value="&lt;span style=&quot;border-color: var(--border-color); text-align: left;&quot;&gt;&lt;font style=&quot;border-color: var(--border-color); font-size: 8px;&quot;&gt;Nombre&lt;/font&gt;&lt;/span&gt;" style="text;html=1;strokeColor=none;fillColor=none;align=center;verticalAlign=middle;whiteSpace=wrap;rounded=0;" parent="1" vertex="1">
          <mxGeometry x="29.58" y="71" width="30" height="15.78" as="geometry" />
        </mxCell>
        <mxCell id="nd5mDW07AQeA4QpzedI7-11" value="&lt;font style=&quot;font-size: 8px;&quot;&gt;CantEstrellas&lt;/font&gt;" style="text;html=1;strokeColor=none;fillColor=none;align=center;verticalAlign=middle;whiteSpace=wrap;rounded=0;" parent="1" vertex="1">
          <mxGeometry x="70" y="60" width="50" height="15.94" as="geometry" />
        </mxCell>
        <mxCell id="nd5mDW07AQeA4QpzedI7-14" value="&lt;span style=&quot;border-color: var(--border-color); text-align: left;&quot;&gt;&lt;font style=&quot;border-color: var(--border-color); font-size: 8px;&quot;&gt;Latitud&lt;/font&gt;&lt;/span&gt;" style="text;html=1;strokeColor=none;fillColor=none;align=center;verticalAlign=middle;whiteSpace=wrap;rounded=0;" parent="1" vertex="1">
          <mxGeometry x="128.78" y="39.44" width="30" height="15.78" as="geometry" />
        </mxCell>
        <mxCell id="nd5mDW07AQeA4QpzedI7-15" value="&lt;span style=&quot;border-color: var(--border-color); text-align: left;&quot;&gt;&lt;font style=&quot;border-color: var(--border-color); font-size: 8px;&quot;&gt;Long&lt;/font&gt;&lt;/span&gt;" style="text;html=1;strokeColor=none;fillColor=none;align=center;verticalAlign=middle;whiteSpace=wrap;rounded=0;" parent="1" vertex="1">
          <mxGeometry x="160" y="39.44" width="30" height="15.78" as="geometry" />
        </mxCell>
        <mxCell id="nd5mDW07AQeA4QpzedI7-16" value="&lt;div style=&quot;text-align: left;&quot;&gt;&lt;span style=&quot;background-color: initial; font-size: 8px;&quot;&gt;Coord&lt;/span&gt;&lt;/div&gt;" style="text;html=1;strokeColor=none;fillColor=none;align=center;verticalAlign=middle;whiteSpace=wrap;rounded=0;" parent="1" vertex="1">
          <mxGeometry x="127.82" y="90" width="30" height="9.88" as="geometry" />
        </mxCell>
        <mxCell id="nd5mDW07AQeA4QpzedI7-19" value="&lt;span style=&quot;border-color: var(--border-color); text-align: left;&quot;&gt;&lt;font style=&quot;border-color: var(--border-color); font-size: 8px;&quot;&gt;NÃºmero&lt;/font&gt;&lt;/span&gt;" style="text;html=1;strokeColor=none;fillColor=none;align=center;verticalAlign=middle;whiteSpace=wrap;rounded=0;" parent="1" vertex="1">
          <mxGeometry x="326.23" y="90.33" width="30" height="15.78" as="geometry" />
        </mxCell>
        <mxCell id="nd5mDW07AQeA4QpzedI7-20" value="&lt;span style=&quot;border-color: var(--border-color); text-align: left;&quot;&gt;&lt;font style=&quot;border-color: var(--border-color); font-size: 8px;&quot;&gt;Superficie&lt;/font&gt;&lt;/span&gt;" style="text;html=1;strokeColor=none;fillColor=none;align=center;verticalAlign=middle;whiteSpace=wrap;rounded=0;" parent="1" vertex="1">
          <mxGeometry x="371.2099999999999" y="90.33" width="35.54" height="15.78" as="geometry" />
        </mxCell>
        <mxCell id="nd5mDW07AQeA4QpzedI7-22" value="&lt;div style=&quot;text-align: left;&quot;&gt;&lt;span style=&quot;font-size: 8px;&quot;&gt;&lt;u&gt;codigoTipoHab&lt;/u&gt;&lt;/span&gt;&lt;/div&gt;" style="text;html=1;strokeColor=none;fillColor=none;align=center;verticalAlign=middle;whiteSpace=wrap;rounded=0;" parent="1" vertex="1">
          <mxGeometry x="625.0000000000001" y="231.56" width="70" height="15.78" as="geometry" />
        </mxCell>
        <mxCell id="nd5mDW07AQeA4QpzedI7-23" value="&lt;span style=&quot;border-color: var(--border-color); text-align: left;&quot;&gt;&lt;font style=&quot;border-color: var(--border-color); font-size: 8px;&quot;&gt;comodidades *&lt;/font&gt;&lt;/span&gt;" style="text;html=1;strokeColor=none;fillColor=none;align=center;verticalAlign=middle;whiteSpace=wrap;rounded=0;" parent="1" vertex="1">
          <mxGeometry x="690.0000000000001" y="231.56" width="70" height="15.78" as="geometry" />
        </mxCell>
        <mxCell id="nd5mDW07AQeA4QpzedI7-27" style="rounded=0;orthogonalLoop=1;jettySize=auto;html=1;exitX=0.5;exitY=1;exitDx=0;exitDy=0;entryX=0.5;entryY=0;entryDx=0;entryDy=0;" parent="1" source="nd5mDW07AQeA4QpzedI7-24" target="nd5mDW07AQeA4QpzedI7-25" edge="1">
          <mxGeometry relative="1" as="geometry">
            <mxPoint x="780.0000000000001" y="166.1099999999999" as="sourcePoint" />
            <mxPoint x="810.0000000000001" y="181" as="targetPoint" />
          </mxGeometry>
        </mxCell>
        <mxCell id="nd5mDW07AQeA4QpzedI7-28" style="rounded=0;orthogonalLoop=1;jettySize=auto;html=1;exitX=0.5;exitY=1;exitDx=0;exitDy=0;entryX=0.5;entryY=0;entryDx=0;entryDy=0;" parent="1" source="nd5mDW07AQeA4QpzedI7-24" target="nd5mDW07AQeA4QpzedI7-26" edge="1">
          <mxGeometry relative="1" as="geometry">
            <mxPoint x="780.0000000000001" y="166.1099999999999" as="sourcePoint" />
            <mxPoint x="795.0000000000001" y="191" as="targetPoint" />
          </mxGeometry>
        </mxCell>
        <mxCell id="nd5mDW07AQeA4QpzedI7-24" value="&lt;span style=&quot;border-color: var(--border-color); text-align: left;&quot;&gt;&lt;font style=&quot;border-color: var(--border-color); font-size: 8px;&quot;&gt;Cama *&lt;/font&gt;&lt;/span&gt;" style="text;html=1;strokeColor=none;fillColor=none;align=center;verticalAlign=middle;whiteSpace=wrap;rounded=0;" parent="1" vertex="1">
          <mxGeometry x="760.0000000000001" y="154.89" width="40" height="15.78" as="geometry" />
        </mxCell>
        <mxCell id="nd5mDW07AQeA4QpzedI7-25" value="&lt;span style=&quot;border-color: var(--border-color); text-align: left;&quot;&gt;&lt;font style=&quot;border-color: var(--border-color); font-size: 8px;&quot;&gt;cantidad&lt;/font&gt;&lt;/span&gt;" style="text;html=1;strokeColor=none;fillColor=none;align=center;verticalAlign=middle;whiteSpace=wrap;rounded=0;" parent="1" vertex="1">
          <mxGeometry x="740.0000000000001" y="191" width="50" height="15.78" as="geometry" />
        </mxCell>
        <mxCell id="nd5mDW07AQeA4QpzedI7-26" value="&lt;span style=&quot;border-color: var(--border-color); text-align: left;&quot;&gt;&lt;font style=&quot;border-color: var(--border-color); font-size: 8px;&quot;&gt;tipo&lt;/font&gt;&lt;/span&gt;" style="text;html=1;strokeColor=none;fillColor=none;align=center;verticalAlign=middle;whiteSpace=wrap;rounded=0;" parent="1" vertex="1">
          <mxGeometry x="780.0000000000001" y="191" width="30" height="15.78" as="geometry" />
        </mxCell>
        <mxCell id="nd5mDW07AQeA4QpzedI7-40" value="" style="endArrow=classic;html=1;rounded=0;exitX=0;exitY=0.5;exitDx=0;exitDy=0;entryX=1;entryY=0.5;entryDx=0;entryDy=0;" parent="1" source="4a63a70a29bb4ada-22" target="4cd4486c729dc68b-1" edge="1">
          <mxGeometry relative="1" as="geometry">
            <mxPoint x="90" y="200" as="sourcePoint" />
            <mxPoint x="250" y="200" as="targetPoint" />
          </mxGeometry>
        </mxCell>
        <mxCell id="nd5mDW07AQeA4QpzedI7-43" value="1" style="edgeLabel;resizable=0;html=1;align=right;verticalAlign=bottom;" parent="nd5mDW07AQeA4QpzedI7-40" connectable="0" vertex="1">
          <mxGeometry x="1" relative="1" as="geometry">
            <mxPoint x="21" as="offset" />
          </mxGeometry>
        </mxCell>
        <mxCell id="nd5mDW07AQeA4QpzedI7-44" style="rounded=0;orthogonalLoop=1;jettySize=auto;html=1;entryX=1.035;entryY=0.533;entryDx=0;entryDy=0;entryPerimeter=0;exitX=0;exitY=0.5;exitDx=0;exitDy=0;" parent="1" source="nd5mDW07AQeA4QpzedI7-45" target="nd5mDW07AQeA4QpzedI7-51" edge="1">
          <mxGeometry relative="1" as="geometry">
            <mxPoint x="289.5945945945946" y="319.7855555555555" as="sourcePoint" />
            <mxPoint x="198.67000000000002" y="306.51809999999995" as="targetPoint" />
          </mxGeometry>
        </mxCell>
        <mxCell id="nd5mDW07AQeA4QpzedI7-45" value="Reserva" style="strokeWidth=2;whiteSpace=wrap;html=1;align=center;fontSize=13;fontFamily=Helvetica;fontColor=#000000;strokeColor=#d79b00;fillColor=#ffe6cc;" parent="1" vertex="1">
          <mxGeometry x="395.53000000000003" y="400.32" width="61.22" height="54.44" as="geometry" />
        </mxCell>
        <mxCell id="nd5mDW07AQeA4QpzedI7-46" style="rounded=0;orthogonalLoop=1;jettySize=auto;html=1;exitX=0;exitY=0.5;exitDx=0;exitDy=0;entryX=1;entryY=0.5;entryDx=0;entryDy=0;" parent="1" source="nd5mDW07AQeA4QpzedI7-45" target="nd5mDW07AQeA4QpzedI7-52" edge="1">
          <mxGeometry relative="1" as="geometry">
            <mxPoint x="209" y="263.22999999999996" as="targetPoint" />
          </mxGeometry>
        </mxCell>
        <mxCell id="nd5mDW07AQeA4QpzedI7-47" style="rounded=0;orthogonalLoop=1;jettySize=auto;html=1;exitX=0;exitY=0.5;exitDx=0;exitDy=0;entryX=1;entryY=0.5;entryDx=0;entryDy=0;" parent="1" source="nd5mDW07AQeA4QpzedI7-45" target="nd5mDW07AQeA4QpzedI7-53" edge="1">
          <mxGeometry relative="1" as="geometry">
            <mxPoint x="263.68" y="239.05170999999999" as="targetPoint" />
          </mxGeometry>
        </mxCell>
        <mxCell id="nd5mDW07AQeA4QpzedI7-48" style="rounded=0;orthogonalLoop=1;jettySize=auto;html=1;exitX=0;exitY=0.5;exitDx=0;exitDy=0;entryX=1;entryY=0.5;entryDx=0;entryDy=0;" parent="1" source="nd5mDW07AQeA4QpzedI7-45" target="nd5mDW07AQeA4QpzedI7-56" edge="1">
          <mxGeometry relative="1" as="geometry">
            <mxPoint x="320.38795" y="287.16623" as="targetPoint" />
          </mxGeometry>
        </mxCell>
        <mxCell id="nd5mDW07AQeA4QpzedI7-51" value="&lt;span style=&quot;border-color: var(--border-color); text-align: left;&quot;&gt;&lt;font style=&quot;border-color: var(--border-color); font-size: 8px;&quot;&gt;cantN&lt;/font&gt;&lt;/span&gt;" style="text;html=1;strokeColor=none;fillColor=none;align=center;verticalAlign=middle;whiteSpace=wrap;rounded=0;" parent="1" vertex="1">
          <mxGeometry x="320" y="430" width="30" height="20" as="geometry" />
        </mxCell>
        <mxCell id="nd5mDW07AQeA4QpzedI7-52" value="&lt;div style=&quot;text-align: left;&quot;&gt;&lt;span style=&quot;background-color: initial; font-size: 8px;&quot;&gt;cantA&lt;/span&gt;&lt;/div&gt;" style="text;html=1;strokeColor=none;fillColor=none;align=center;verticalAlign=middle;whiteSpace=wrap;rounded=0;" parent="1" vertex="1">
          <mxGeometry x="320" y="450" width="30" height="15.78" as="geometry" />
        </mxCell>
        <mxCell id="nd5mDW07AQeA4QpzedI7-53" value="&lt;font style=&quot;font-size: 8px;&quot;&gt;fechaSalida&lt;/font&gt;" style="text;html=1;strokeColor=none;fillColor=none;align=center;verticalAlign=middle;whiteSpace=wrap;rounded=0;" parent="1" vertex="1">
          <mxGeometry x="310" y="418.44999999999993" width="50" height="15.94" as="geometry" />
        </mxCell>
        <mxCell id="nd5mDW07AQeA4QpzedI7-56" value="&lt;div style=&quot;text-align: left;&quot;&gt;&lt;span style=&quot;font-size: 8px;&quot;&gt;fechaLlegada&lt;/span&gt;&lt;/div&gt;" style="text;html=1;strokeColor=none;fillColor=none;align=center;verticalAlign=middle;whiteSpace=wrap;rounded=0;" parent="1" vertex="1">
          <mxGeometry x="310" y="402.66999999999996" width="50" height="15.78" as="geometry" />
        </mxCell>
        <mxCell id="nd5mDW07AQeA4QpzedI7-60" value="&lt;div style=&quot;text-align: left;&quot;&gt;&lt;span style=&quot;font-size: 8px;&quot;&gt;fechaReserva&lt;/span&gt;&lt;/div&gt;" style="text;html=1;strokeColor=none;fillColor=none;align=center;verticalAlign=middle;whiteSpace=wrap;rounded=0;" parent="1" vertex="1">
          <mxGeometry x="310" y="388.65999999999997" width="50" height="15.78" as="geometry" />
        </mxCell>
        <mxCell id="nd5mDW07AQeA4QpzedI7-61" style="rounded=0;orthogonalLoop=1;jettySize=auto;html=1;exitX=0;exitY=0.5;exitDx=0;exitDy=0;entryX=1;entryY=0.5;entryDx=0;entryDy=0;" parent="1" source="nd5mDW07AQeA4QpzedI7-45" target="nd5mDW07AQeA4QpzedI7-60" edge="1">
          <mxGeometry relative="1" as="geometry">
            <mxPoint x="225" y="322.34" as="targetPoint" />
            <mxPoint x="264" y="357.34" as="sourcePoint" />
          </mxGeometry>
        </mxCell>
        <mxCell id="nd5mDW07AQeA4QpzedI7-63" value="R-H" style="shape=rhombus;strokeWidth=2;fontSize=13;perimeter=rhombusPerimeter;whiteSpace=wrap;html=1;align=center;fillColor=#d5e8d4;strokeColor=#82b366;" parent="1" vertex="1">
          <mxGeometry x="384.68" y="249.57000000000002" width="83.07692307692307" height="54.44" as="geometry" />
        </mxCell>
        <mxCell id="nd5mDW07AQeA4QpzedI7-64" value="" style="endArrow=none;html=1;rounded=0;exitX=0.5;exitY=0;exitDx=0;exitDy=0;entryX=0.5;entryY=1;entryDx=0;entryDy=0;" parent="1" source="nd5mDW07AQeA4QpzedI7-45" target="nd5mDW07AQeA4QpzedI7-63" edge="1">
          <mxGeometry relative="1" as="geometry">
            <mxPoint x="370" y="270" as="sourcePoint" />
            <mxPoint x="530" y="270" as="targetPoint" />
          </mxGeometry>
        </mxCell>
        <mxCell id="nd5mDW07AQeA4QpzedI7-65" value="1" style="resizable=0;html=1;whiteSpace=wrap;align=right;verticalAlign=bottom;" parent="nd5mDW07AQeA4QpzedI7-64" connectable="0" vertex="1">
          <mxGeometry x="1" relative="1" as="geometry">
            <mxPoint x="-6" y="96" as="offset" />
          </mxGeometry>
        </mxCell>
        <mxCell id="nd5mDW07AQeA4QpzedI7-66" value="" style="endArrow=none;html=1;rounded=0;exitX=0.5;exitY=1;exitDx=0;exitDy=0;entryX=0.5;entryY=0;entryDx=0;entryDy=0;" parent="1" source="Re7R5-p3Bq7VHOhCyrpi-45" target="nd5mDW07AQeA4QpzedI7-63" edge="1">
          <mxGeometry relative="1" as="geometry">
            <mxPoint x="370" y="270" as="sourcePoint" />
            <mxPoint x="530" y="270" as="targetPoint" />
          </mxGeometry>
        </mxCell>
        <mxCell id="nd5mDW07AQeA4QpzedI7-68" value="1" style="resizable=0;html=1;whiteSpace=wrap;align=right;verticalAlign=bottom;" parent="nd5mDW07AQeA4QpzedI7-66" connectable="0" vertex="1">
          <mxGeometry x="1" relative="1" as="geometry">
            <mxPoint x="-1" y="-43" as="offset" />
          </mxGeometry>
        </mxCell>
        <mxCell id="nd5mDW07AQeA4QpzedI7-69" style="rounded=0;orthogonalLoop=1;jettySize=auto;html=1;entryX=1.035;entryY=0.533;entryDx=0;entryDy=0;entryPerimeter=0;exitX=0;exitY=0.5;exitDx=0;exitDy=0;" parent="1" source="nd5mDW07AQeA4QpzedI7-70" target="nd5mDW07AQeA4QpzedI7-74" edge="1">
          <mxGeometry relative="1" as="geometry">
            <mxPoint x="851.8145945945946" y="151.12555555555542" as="sourcePoint" />
            <mxPoint x="760.8900000000001" y="137.85809999999987" as="targetPoint" />
          </mxGeometry>
        </mxCell>
        <mxCell id="nd5mDW07AQeA4QpzedI7-70" value="Personas" style="strokeWidth=2;whiteSpace=wrap;html=1;align=center;fontSize=13;fontFamily=Helvetica;fontColor=#000000;strokeColor=#d79b00;fillColor=#ffe6cc;" parent="1" vertex="1">
          <mxGeometry x="957.8299999999999" y="230.5399999999999" width="61.22" height="54.44" as="geometry" />
        </mxCell>
        <mxCell id="nd5mDW07AQeA4QpzedI7-71" style="rounded=0;orthogonalLoop=1;jettySize=auto;html=1;exitX=0;exitY=0.5;exitDx=0;exitDy=0;entryX=1;entryY=0.5;entryDx=0;entryDy=0;" parent="1" source="nd5mDW07AQeA4QpzedI7-70" target="nd5mDW07AQeA4QpzedI7-83" edge="1">
          <mxGeometry relative="1" as="geometry">
            <mxPoint x="912.22" y="289.23" as="targetPoint" />
          </mxGeometry>
        </mxCell>
        <mxCell id="nd5mDW07AQeA4QpzedI7-72" style="rounded=0;orthogonalLoop=1;jettySize=auto;html=1;exitX=0;exitY=0.5;exitDx=0;exitDy=0;entryX=1;entryY=0.5;entryDx=0;entryDy=0;" parent="1" source="nd5mDW07AQeA4QpzedI7-70" target="nd5mDW07AQeA4QpzedI7-76" edge="1">
          <mxGeometry relative="1" as="geometry">
            <mxPoint x="825.9000000000001" y="70.39170999999996" as="targetPoint" />
          </mxGeometry>
        </mxCell>
        <mxCell id="nd5mDW07AQeA4QpzedI7-73" style="rounded=0;orthogonalLoop=1;jettySize=auto;html=1;exitX=0;exitY=0.5;exitDx=0;exitDy=0;entryX=1;entryY=0.5;entryDx=0;entryDy=0;" parent="1" source="nd5mDW07AQeA4QpzedI7-70" target="nd5mDW07AQeA4QpzedI7-77" edge="1">
          <mxGeometry relative="1" as="geometry">
            <mxPoint x="882.6079500000001" y="118.5062299999999" as="targetPoint" />
          </mxGeometry>
        </mxCell>
        <mxCell id="nd5mDW07AQeA4QpzedI7-74" value="&lt;span style=&quot;border-color: var(--border-color); text-align: left;&quot;&gt;&lt;font style=&quot;border-color: var(--border-color); font-size: 8px;&quot;&gt;sexo&lt;/font&gt;&lt;/span&gt;" style="text;html=1;strokeColor=none;fillColor=none;align=center;verticalAlign=middle;whiteSpace=wrap;rounded=0;" parent="1" vertex="1">
          <mxGeometry x="882.22" y="265.7299999999999" width="30" height="11.34" as="geometry" />
        </mxCell>
        <mxCell id="nd5mDW07AQeA4QpzedI7-76" value="&lt;font style=&quot;font-size: 8px;&quot;&gt;fechaNac&lt;/font&gt;" style="text;html=1;strokeColor=none;fillColor=none;align=center;verticalAlign=middle;whiteSpace=wrap;rounded=0;" parent="1" vertex="1">
          <mxGeometry x="872.22" y="249.78999999999988" width="50" height="15.94" as="geometry" />
        </mxCell>
        <mxCell id="nd5mDW07AQeA4QpzedI7-77" value="&lt;div style=&quot;text-align: left;&quot;&gt;&lt;span style=&quot;font-size: 8px;&quot;&gt;nombre&lt;/span&gt;&lt;/div&gt;" style="text;html=1;strokeColor=none;fillColor=none;align=center;verticalAlign=middle;whiteSpace=wrap;rounded=0;" parent="1" vertex="1">
          <mxGeometry x="872.22" y="234.00999999999993" width="50" height="15.78" as="geometry" />
        </mxCell>
        <mxCell id="nd5mDW07AQeA4QpzedI7-78" value="&lt;div style=&quot;text-align: left;&quot;&gt;&lt;span style=&quot;font-size: 8px;&quot;&gt;apellido&lt;/span&gt;&lt;/div&gt;" style="text;html=1;strokeColor=none;fillColor=none;align=center;verticalAlign=middle;whiteSpace=wrap;rounded=0;" parent="1" vertex="1">
          <mxGeometry x="872.22" y="219.99999999999994" width="50" height="15.78" as="geometry" />
        </mxCell>
        <mxCell id="nd5mDW07AQeA4QpzedI7-79" style="rounded=0;orthogonalLoop=1;jettySize=auto;html=1;exitX=0;exitY=0.5;exitDx=0;exitDy=0;entryX=1;entryY=0.5;entryDx=0;entryDy=0;" parent="1" source="nd5mDW07AQeA4QpzedI7-70" target="nd5mDW07AQeA4QpzedI7-78" edge="1">
          <mxGeometry relative="1" as="geometry">
            <mxPoint x="787.22" y="153.6799999999999" as="targetPoint" />
            <mxPoint x="826.22" y="188.6799999999999" as="sourcePoint" />
          </mxGeometry>
        </mxCell>
        <mxCell id="nd5mDW07AQeA4QpzedI7-81" style="rounded=0;orthogonalLoop=1;jettySize=auto;html=1;exitX=0.5;exitY=1;exitDx=0;exitDy=0;entryX=0.5;entryY=0;entryDx=0;entryDy=0;" parent="1" source="nd5mDW07AQeA4QpzedI7-83" target="nd5mDW07AQeA4QpzedI7-85" edge="1">
          <mxGeometry relative="1" as="geometry">
            <mxPoint x="863.4800000000002" y="300.75999999999976" as="sourcePoint" />
            <mxPoint x="848.48" y="325.64999999999986" as="targetPoint" />
          </mxGeometry>
        </mxCell>
        <mxCell id="nd5mDW07AQeA4QpzedI7-82" style="rounded=0;orthogonalLoop=1;jettySize=auto;html=1;exitX=0.5;exitY=1;exitDx=0;exitDy=0;entryX=0.5;entryY=0;entryDx=0;entryDy=0;" parent="1" source="nd5mDW07AQeA4QpzedI7-83" target="nd5mDW07AQeA4QpzedI7-84" edge="1">
          <mxGeometry relative="1" as="geometry">
            <mxPoint x="863.4800000000002" y="300.75999999999976" as="sourcePoint" />
            <mxPoint x="878.4800000000002" y="325.64999999999986" as="targetPoint" />
          </mxGeometry>
        </mxCell>
        <mxCell id="nd5mDW07AQeA4QpzedI7-83" value="&lt;span style=&quot;border-color: var(--border-color); text-align: left;&quot;&gt;&lt;font style=&quot;border-color: var(--border-color); font-size: 8px;&quot;&gt;doc&lt;/font&gt;&lt;/span&gt;" style="text;html=1;strokeColor=none;fillColor=none;align=center;verticalAlign=middle;whiteSpace=wrap;rounded=0;" parent="1" vertex="1">
          <mxGeometry x="892.1800000000001" y="281.3399999999998" width="20.04" height="15.78" as="geometry" />
        </mxCell>
        <mxCell id="nd5mDW07AQeA4QpzedI7-84" value="&lt;span style=&quot;border-color: var(--border-color); text-align: left;&quot;&gt;&lt;font style=&quot;border-color: var(--border-color); font-size: 8px;&quot;&gt;nÃºmero&lt;/font&gt;&lt;/span&gt;" style="text;html=1;strokeColor=none;fillColor=none;align=center;verticalAlign=middle;whiteSpace=wrap;rounded=0;" parent="1" vertex="1">
          <mxGeometry x="902.1800000000001" y="312.8799999999999" width="30" height="10" as="geometry" />
        </mxCell>
        <mxCell id="nd5mDW07AQeA4QpzedI7-85" value="&lt;span style=&quot;border-color: var(--border-color); text-align: left;&quot;&gt;&lt;font style=&quot;border-color: var(--border-color); font-size: 8px;&quot;&gt;tipo&lt;/font&gt;&lt;/span&gt;" style="text;html=1;strokeColor=none;fillColor=none;align=center;verticalAlign=middle;whiteSpace=wrap;rounded=0;" parent="1" vertex="1">
          <mxGeometry x="872.1800000000001" y="311.4399999999998" width="30" height="12.88" as="geometry" />
        </mxCell>
        <mxCell id="nd5mDW07AQeA4QpzedI7-87" value="Adulto" style="strokeWidth=2;whiteSpace=wrap;html=1;align=center;fontSize=13;fontFamily=Helvetica;fontColor=#000000;strokeColor=#d79b00;fillColor=#ffe6cc;" parent="1" vertex="1">
          <mxGeometry x="810.96" y="396.22" width="61.22" height="54.44" as="geometry" />
        </mxCell>
        <mxCell id="nd5mDW07AQeA4QpzedI7-88" style="rounded=0;orthogonalLoop=1;jettySize=auto;html=1;exitX=0.5;exitY=1;exitDx=0;exitDy=0;entryX=0.516;entryY=0.159;entryDx=0;entryDy=0;entryPerimeter=0;" parent="1" source="nd5mDW07AQeA4QpzedI7-87" target="nd5mDW07AQeA4QpzedI7-98" edge="1">
          <mxGeometry relative="1" as="geometry">
            <mxPoint x="925.6400000000001" y="454.95000000000016" as="targetPoint" />
          </mxGeometry>
        </mxCell>
        <mxCell id="nd5mDW07AQeA4QpzedI7-96" style="rounded=0;orthogonalLoop=1;jettySize=auto;html=1;exitX=0.5;exitY=1;exitDx=0;exitDy=0;entryX=0.5;entryY=0;entryDx=0;entryDy=0;" parent="1" source="nd5mDW07AQeA4QpzedI7-98" target="nd5mDW07AQeA4QpzedI7-100" edge="1">
          <mxGeometry relative="1" as="geometry">
            <mxPoint x="803.4800000000002" y="495.1399999999999" as="sourcePoint" />
            <mxPoint x="788.48" y="520.03" as="targetPoint" />
          </mxGeometry>
        </mxCell>
        <mxCell id="nd5mDW07AQeA4QpzedI7-97" style="rounded=0;orthogonalLoop=1;jettySize=auto;html=1;exitX=0.5;exitY=1;exitDx=0;exitDy=0;entryX=0.5;entryY=0;entryDx=0;entryDy=0;" parent="1" source="nd5mDW07AQeA4QpzedI7-98" target="nd5mDW07AQeA4QpzedI7-99" edge="1">
          <mxGeometry relative="1" as="geometry">
            <mxPoint x="803.4800000000002" y="495.1399999999999" as="sourcePoint" />
            <mxPoint x="818.4800000000002" y="520.03" as="targetPoint" />
          </mxGeometry>
        </mxCell>
        <mxCell id="nd5mDW07AQeA4QpzedI7-98" value="&lt;div style=&quot;text-align: left;&quot;&gt;&lt;span style=&quot;background-color: initial; font-size: 8px;&quot;&gt;ocupaciÃ³n&lt;/span&gt;&lt;/div&gt;" style="text;html=1;strokeColor=none;fillColor=none;align=center;verticalAlign=middle;whiteSpace=wrap;rounded=0;" parent="1" vertex="1">
          <mxGeometry x="819.48" y="475.72" width="42.25" height="15.78" as="geometry" />
        </mxCell>
        <mxCell id="nd5mDW07AQeA4QpzedI7-99" value="&lt;span style=&quot;border-color: var(--border-color); text-align: left;&quot;&gt;&lt;font style=&quot;border-color: var(--border-color); font-size: 8px;&quot;&gt;nÃºmero&lt;/font&gt;&lt;/span&gt;" style="text;html=1;strokeColor=none;fillColor=none;align=center;verticalAlign=middle;whiteSpace=wrap;rounded=0;" parent="1" vertex="1">
          <mxGeometry x="842.1800000000001" y="507.26" width="30" height="10" as="geometry" />
        </mxCell>
        <mxCell id="nd5mDW07AQeA4QpzedI7-100" value="&lt;span style=&quot;border-color: var(--border-color); text-align: left;&quot;&gt;&lt;font style=&quot;border-color: var(--border-color); font-size: 8px;&quot;&gt;tipo&lt;/font&gt;&lt;/span&gt;" style="text;html=1;strokeColor=none;fillColor=none;align=center;verticalAlign=middle;whiteSpace=wrap;rounded=0;" parent="1" vertex="1">
          <mxGeometry x="810" y="505.82000000000005" width="30" height="12.88" as="geometry" />
        </mxCell>
        <mxCell id="nd5mDW07AQeA4QpzedI7-102" value="NiÃ±o" style="strokeWidth=2;whiteSpace=wrap;html=1;align=center;fontSize=13;fontFamily=Helvetica;fontColor=#000000;strokeColor=#d79b00;fillColor=#ffe6cc;" parent="1" vertex="1">
          <mxGeometry x="1011.46" y="393.1" width="61.22" height="54.44" as="geometry" />
        </mxCell>
        <mxCell id="nd5mDW07AQeA4QpzedI7-109" value="&lt;div style=&quot;text-align: left;&quot;&gt;&lt;span style=&quot;font-size: 8px;&quot;&gt;alergias&lt;/span&gt;&lt;/div&gt;" style="text;html=1;strokeColor=none;fillColor=none;align=center;verticalAlign=middle;whiteSpace=wrap;rounded=0;" parent="1" vertex="1">
          <mxGeometry x="1025.49" y="472.6" width="33.17" height="15.78" as="geometry" />
        </mxCell>
        <mxCell id="nd5mDW07AQeA4QpzedI7-110" style="rounded=0;orthogonalLoop=1;jettySize=auto;html=1;exitX=0.5;exitY=1;exitDx=0;exitDy=0;entryX=0.5;entryY=0;entryDx=0;entryDy=0;" parent="1" source="nd5mDW07AQeA4QpzedI7-102" target="nd5mDW07AQeA4QpzedI7-109" edge="1">
          <mxGeometry relative="1" as="geometry">
            <mxPoint x="840.8499999999999" y="316.2399999999999" as="targetPoint" />
            <mxPoint x="879.8499999999999" y="351.24" as="sourcePoint" />
          </mxGeometry>
        </mxCell>
        <mxCell id="nd5mDW07AQeA4QpzedI7-130" style="edgeStyle=orthogonalEdgeStyle;rounded=0;orthogonalLoop=1;jettySize=auto;html=1;entryX=0.5;entryY=0;entryDx=0;entryDy=0;exitX=0;exitY=0.5;exitDx=0;exitDy=0;" parent="1" source="nd5mDW07AQeA4QpzedI7-126" target="nd5mDW07AQeA4QpzedI7-87" edge="1">
          <mxGeometry relative="1" as="geometry">
            <Array as="points">
              <mxPoint x="988" y="360" />
              <mxPoint x="842" y="360" />
            </Array>
          </mxGeometry>
        </mxCell>
        <mxCell id="nd5mDW07AQeA4QpzedI7-131" style="edgeStyle=orthogonalEdgeStyle;rounded=0;orthogonalLoop=1;jettySize=auto;html=1;entryX=0.5;entryY=0;entryDx=0;entryDy=0;exitX=0;exitY=0.5;exitDx=0;exitDy=0;" parent="1" source="nd5mDW07AQeA4QpzedI7-126" target="nd5mDW07AQeA4QpzedI7-102" edge="1">
          <mxGeometry relative="1" as="geometry">
            <mxPoint x="1079.39" y="365.72" as="sourcePoint" />
            <Array as="points">
              <mxPoint x="988" y="360" />
              <mxPoint x="1042" y="360" />
            </Array>
          </mxGeometry>
        </mxCell>
        <mxCell id="nd5mDW07AQeA4QpzedI7-126" value="" style="triangle;whiteSpace=wrap;html=1;rotation=-90;" parent="1" vertex="1">
          <mxGeometry x="978.29" y="296.6199999999999" width="20.31" height="38.46" as="geometry" />
        </mxCell>
        <mxCell id="nd5mDW07AQeA4QpzedI7-127" value="" style="endArrow=none;html=1;rounded=0;entryX=1;entryY=0.5;entryDx=0;entryDy=0;exitX=0.5;exitY=1;exitDx=0;exitDy=0;" parent="1" source="nd5mDW07AQeA4QpzedI7-70" target="nd5mDW07AQeA4QpzedI7-126" edge="1">
          <mxGeometry width="50" height="50" relative="1" as="geometry">
            <mxPoint x="992.1800000000001" y="380" as="sourcePoint" />
            <mxPoint x="1042.18" y="329.9999999999999" as="targetPoint" />
          </mxGeometry>
        </mxCell>
        <mxCell id="v4do-Kpl7I2UpU8D8rJy-2" value="" style="group" parent="1" connectable="0" vertex="1">
          <mxGeometry x="1070.97" y="230.5399999999999" width="61.3" height="54.44" as="geometry" />
        </mxCell>
        <mxCell id="v4do-Kpl7I2UpU8D8rJy-3" value="Vive" style="shape=rhombus;strokeWidth=2;fontSize=13;perimeter=rhombusPerimeter;whiteSpace=wrap;html=1;align=center;fillColor=#d5e8d4;strokeColor=#82b366;" parent="v4do-Kpl7I2UpU8D8rJy-2" vertex="1">
          <mxGeometry width="61.300000000000004" height="54.44" as="geometry" />
        </mxCell>
        <mxCell id="v4do-Kpl7I2UpU8D8rJy-4" value="" style="endArrow=none;html=1;rounded=0;exitX=1;exitY=0.5;exitDx=0;exitDy=0;entryX=0;entryY=0.5;entryDx=0;entryDy=0;" parent="1" source="nd5mDW07AQeA4QpzedI7-70" target="v4do-Kpl7I2UpU8D8rJy-3" edge="1">
          <mxGeometry relative="1" as="geometry">
            <mxPoint x="1019.05" y="257.39999999999986" as="sourcePoint" />
            <mxPoint x="1060.97" y="229.99999999999994" as="targetPoint" />
          </mxGeometry>
        </mxCell>
        <mxCell id="v4do-Kpl7I2UpU8D8rJy-5" value="N" style="resizable=0;html=1;whiteSpace=wrap;align=left;verticalAlign=bottom;" parent="v4do-Kpl7I2UpU8D8rJy-4" connectable="0" vertex="1">
          <mxGeometry x="-1" relative="1" as="geometry">
            <mxPoint y="-3" as="offset" />
          </mxGeometry>
        </mxCell>
        <mxCell id="v4do-Kpl7I2UpU8D8rJy-6" value="" style="resizable=0;html=1;whiteSpace=wrap;align=right;verticalAlign=bottom;" parent="v4do-Kpl7I2UpU8D8rJy-4" connectable="0" vertex="1">
          <mxGeometry x="1" relative="1" as="geometry" />
        </mxCell>
        <mxCell id="v4do-Kpl7I2UpU8D8rJy-51" style="rounded=0;orthogonalLoop=1;jettySize=auto;html=1;exitX=0.75;exitY=1;exitDx=0;exitDy=0;entryX=0.75;entryY=0;entryDx=0;entryDy=0;" edge="1" parent="1" source="3gCy1ZHmhqZn4_o4P-82-1" target="3gCy1ZHmhqZn4_o4P-82-48">
          <mxGeometry relative="1" as="geometry" />
        </mxCell>
        <mxCell id="3gCy1ZHmhqZn4_o4P-82-1" value="Ciudades" style="strokeWidth=2;whiteSpace=wrap;html=1;align=center;fontSize=13;fontFamily=Helvetica;fontColor=#000000;strokeColor=#d79b00;fillColor=#ffe6cc;" parent="1" vertex="1">
          <mxGeometry x="686.5899999999999" y="613.35" width="90" height="47.99" as="geometry" />
        </mxCell>
        <mxCell id="3gCy1ZHmhqZn4_o4P-82-8" style="edgeStyle=orthogonalEdgeStyle;rounded=0;orthogonalLoop=1;jettySize=auto;html=1;entryX=0;entryY=0.5;entryDx=0;entryDy=0;endArrow=oval;endFill=1;" parent="1" source="3gCy1ZHmhqZn4_o4P-82-1" target="3gCy1ZHmhqZn4_o4P-82-6" edge="1">
          <mxGeometry relative="1" as="geometry" />
        </mxCell>
        <mxCell id="3gCy1ZHmhqZn4_o4P-82-76" style="edgeStyle=orthogonalEdgeStyle;rounded=0;orthogonalLoop=1;jettySize=auto;html=1;entryX=0.75;entryY=0;entryDx=0;entryDy=0;endArrow=none;endFill=0;" edge="1" parent="1" source="v4do-Kpl7I2UpU8D8rJy-3" target="3gCy1ZHmhqZn4_o4P-82-1">
          <mxGeometry relative="1" as="geometry">
            <Array as="points">
              <mxPoint x="1102" y="540" />
              <mxPoint x="754" y="540" />
            </Array>
          </mxGeometry>
        </mxCell>
        <mxCell id="3gCy1ZHmhqZn4_o4P-82-29" style="edgeStyle=orthogonalEdgeStyle;rounded=0;orthogonalLoop=1;jettySize=auto;html=1;entryX=1;entryY=0.5;entryDx=0;entryDy=0;endArrow=none;endFill=0;" parent="1" source="3gCy1ZHmhqZn4_o4P-82-3" target="3gCy1ZHmhqZn4_o4P-82-19" edge="1">
          <mxGeometry relative="1" as="geometry" />
        </mxCell>
        <mxCell id="3gCy1ZHmhqZn4_o4P-82-25" style="edgeStyle=orthogonalEdgeStyle;rounded=0;orthogonalLoop=1;jettySize=auto;html=1;entryX=0.5;entryY=0;entryDx=0;entryDy=0;endArrow=oval;endFill=1;" parent="1" source="3gCy1ZHmhqZn4_o4P-82-2" target="3gCy1ZHmhqZn4_o4P-82-12" edge="1">
          <mxGeometry relative="1" as="geometry" />
        </mxCell>
        <mxCell id="3gCy1ZHmhqZn4_o4P-82-4" value="Continente" style="strokeWidth=2;whiteSpace=wrap;html=1;align=center;fontSize=13;fontFamily=Helvetica;fontColor=#000000;strokeColor=#d79b00;fillColor=#ffe6cc;" parent="1" vertex="1">
          <mxGeometry x="676.59" y="802.01" width="100" height="47.99" as="geometry" />
        </mxCell>
        <mxCell id="3gCy1ZHmhqZn4_o4P-82-3" value="Pais" style="strokeWidth=2;whiteSpace=wrap;html=1;align=center;fontSize=13;fontFamily=Helvetica;fontColor=#000000;strokeColor=#d79b00;fillColor=#ffe6cc;" parent="1" vertex="1">
          <mxGeometry x="962.79" y="802.01" width="79" height="47.99" as="geometry" />
        </mxCell>
        <mxCell id="3gCy1ZHmhqZn4_o4P-82-5" value="" style="group" parent="1" connectable="0" vertex="1">
          <mxGeometry x="811.79" y="607.7599999999999" width="100" height="60" as="geometry" />
        </mxCell>
        <mxCell id="3gCy1ZHmhqZn4_o4P-82-6" value="Pertenece" style="shape=rhombus;strokeWidth=2;fontSize=13;perimeter=rhombusPerimeter;whiteSpace=wrap;html=1;align=center;fillColor=#d5e8d4;strokeColor=#82b366;" parent="3gCy1ZHmhqZn4_o4P-82-5" vertex="1">
          <mxGeometry width="100" height="60" as="geometry" />
        </mxCell>
        <mxCell id="3gCy1ZHmhqZn4_o4P-82-2" value="DivisionPolitica" style="strokeWidth=2;whiteSpace=wrap;html=1;align=center;fontSize=13;fontFamily=Helvetica;fontColor=#000000;strokeColor=#d79b00;fillColor=#ffe6cc;" parent="1" vertex="1">
          <mxGeometry x="942.79" y="613.35" width="120" height="47.99" as="geometry" />
        </mxCell>
        <mxCell id="3gCy1ZHmhqZn4_o4P-82-9" style="edgeStyle=orthogonalEdgeStyle;rounded=0;orthogonalLoop=1;jettySize=auto;html=1;entryX=0;entryY=0.5;entryDx=0;entryDy=0;endArrow=classic;endFill=1;startArrow=none;startFill=0;" parent="1" source="3gCy1ZHmhqZn4_o4P-82-6" target="3gCy1ZHmhqZn4_o4P-82-2" edge="1">
          <mxGeometry relative="1" as="geometry" />
        </mxCell>
        <mxCell id="3gCy1ZHmhqZn4_o4P-82-11" value="" style="group" parent="1" connectable="0" vertex="1">
          <mxGeometry x="962.79" y="702.88" width="80" height="54.44" as="geometry" />
        </mxCell>
        <mxCell id="3gCy1ZHmhqZn4_o4P-82-12" value="DP-P" style="shape=rhombus;strokeWidth=2;fontSize=13;perimeter=rhombusPerimeter;whiteSpace=wrap;html=1;align=center;fillColor=#d5e8d4;strokeColor=#82b366;" parent="3gCy1ZHmhqZn4_o4P-82-11" vertex="1">
          <mxGeometry width="80" height="54.44" as="geometry" />
        </mxCell>
        <mxCell id="3gCy1ZHmhqZn4_o4P-82-18" value="" style="group" parent="1" connectable="0" vertex="1">
          <mxGeometry x="841.79" y="798.79" width="61.3" height="54.44" as="geometry" />
        </mxCell>
        <mxCell id="3gCy1ZHmhqZn4_o4P-82-19" value="P-C" style="shape=rhombus;strokeWidth=2;fontSize=13;perimeter=rhombusPerimeter;whiteSpace=wrap;html=1;align=center;fillColor=#d5e8d4;strokeColor=#82b366;" parent="3gCy1ZHmhqZn4_o4P-82-18" vertex="1">
          <mxGeometry width="61.300000000000004" height="54.44" as="geometry" />
        </mxCell>
        <mxCell id="v4do-Kpl7I2UpU8D8rJy-8" value="" style="group" parent="1" connectable="0" vertex="1">
          <mxGeometry x="395.53" y="35.89000000000003" width="61.3" height="54.44" as="geometry" />
        </mxCell>
        <mxCell id="v4do-Kpl7I2UpU8D8rJy-9" value="Posee" style="shape=rhombus;strokeWidth=2;fontSize=13;perimeter=rhombusPerimeter;whiteSpace=wrap;html=1;align=center;fillColor=#d5e8d4;strokeColor=#82b366;" parent="v4do-Kpl7I2UpU8D8rJy-8" vertex="1">
          <mxGeometry width="61.300000000000004" height="54.44" as="geometry" />
        </mxCell>
        <mxCell id="v4do-Kpl7I2UpU8D8rJy-12" value="PecioPorNoche" style="strokeWidth=2;whiteSpace=wrap;html=1;align=center;fontSize=13;fontFamily=Helvetica;fontColor=#000000;strokeColor=#d79b00;fillColor=#ffe6cc;" parent="1" vertex="1">
          <mxGeometry x="619.9999999999999" y="35.889999999999986" width="100" height="54.44" as="geometry" />
        </mxCell>
        <mxCell id="v4do-Kpl7I2UpU8D8rJy-13" style="rounded=0;orthogonalLoop=1;jettySize=auto;html=1;exitX=1;exitY=0.5;exitDx=0;exitDy=0;entryX=0;entryY=0.5;entryDx=0;entryDy=0;strokeColor=default;" parent="1" source="v4do-Kpl7I2UpU8D8rJy-12" target="v4do-Kpl7I2UpU8D8rJy-17" edge="1">
          <mxGeometry relative="1" as="geometry">
            <mxPoint x="424.67364999999995" y="-156.77316" as="targetPoint" />
          </mxGeometry>
        </mxCell>
        <mxCell id="v4do-Kpl7I2UpU8D8rJy-14" style="rounded=0;orthogonalLoop=1;jettySize=auto;html=1;entryX=0;entryY=0.5;entryDx=0;entryDy=0;exitX=1;exitY=0.5;exitDx=0;exitDy=0;" parent="1" source="v4do-Kpl7I2UpU8D8rJy-12" target="v4do-Kpl7I2UpU8D8rJy-16" edge="1">
          <mxGeometry relative="1" as="geometry">
            <mxPoint x="720" y="50" as="sourcePoint" />
            <mxPoint x="332.79999999999995" y="-172.5862" as="targetPoint" />
          </mxGeometry>
        </mxCell>
        <mxCell id="v4do-Kpl7I2UpU8D8rJy-16" value="&lt;span style=&quot;border-color: var(--border-color); text-align: left;&quot;&gt;&lt;font style=&quot;border-color: var(--border-color); font-size: 8px;&quot;&gt;&lt;u&gt;fechaUltimoCambio&lt;/u&gt;&lt;/font&gt;&lt;/span&gt;" style="text;html=1;strokeColor=none;fillColor=none;align=center;verticalAlign=middle;whiteSpace=wrap;rounded=0;" parent="1" vertex="1">
          <mxGeometry x="750" y="55.22" width="75.2" height="15.78" as="geometry" />
        </mxCell>
        <mxCell id="v4do-Kpl7I2UpU8D8rJy-17" value="&lt;span style=&quot;border-color: var(--border-color); text-align: left;&quot;&gt;&lt;font style=&quot;border-color: var(--border-color); font-size: 8px;&quot;&gt;Precio&lt;/font&gt;&lt;/span&gt;" style="text;html=1;strokeColor=none;fillColor=none;align=center;verticalAlign=middle;whiteSpace=wrap;rounded=0;" parent="1" vertex="1">
          <mxGeometry x="749.6299999999999" y="39.440000000000005" width="30.74" height="15.78" as="geometry" />
        </mxCell>
        <mxCell id="eT8vk3jtKU_EM40d7Veh-8" value="ExcursiÃ³n" style="strokeWidth=2;whiteSpace=wrap;html=1;align=center;fontSize=13;fontFamily=Helvetica;fontColor=#000000;strokeColor=#d79b00;fillColor=#ffe6cc;" parent="1" vertex="1">
          <mxGeometry x="430.9600000000001" y="733.6400000000002" width="61.22" height="54.44" as="geometry" />
        </mxCell>
        <mxCell id="v4do-Kpl7I2UpU8D8rJy-20" value="" style="endArrow=none;html=1;rounded=0;exitX=0.5;exitY=0;exitDx=0;exitDy=0;entryX=0.5;entryY=1;entryDx=0;entryDy=0;" parent="1" source="Re7R5-p3Bq7VHOhCyrpi-45" target="v4do-Kpl7I2UpU8D8rJy-9" edge="1">
          <mxGeometry relative="1" as="geometry">
            <mxPoint x="450" y="330" as="sourcePoint" />
            <mxPoint x="426" y="50" as="targetPoint" />
          </mxGeometry>
        </mxCell>
        <mxCell id="v4do-Kpl7I2UpU8D8rJy-21" value="N" style="resizable=0;html=1;whiteSpace=wrap;align=left;verticalAlign=bottom;" parent="v4do-Kpl7I2UpU8D8rJy-20" connectable="0" vertex="1">
          <mxGeometry x="-1" relative="1" as="geometry" />
        </mxCell>
        <mxCell id="3gCy1ZHmhqZn4_o4P-82-34" value="N" style="resizable=0;html=1;whiteSpace=wrap;align=left;verticalAlign=bottom;direction=south;" parent="1" connectable="0" vertex="1">
          <mxGeometry x="942.79" y="824.94" as="geometry" />
        </mxCell>
        <mxCell id="3gCy1ZHmhqZn4_o4P-82-35" value="N" style="resizable=0;html=1;whiteSpace=wrap;align=left;verticalAlign=bottom;direction=south;" parent="1" connectable="0" vertex="1">
          <mxGeometry x="1042.79" y="849.3" as="geometry" />
        </mxCell>
        <mxCell id="eT8vk3jtKU_EM40d7Veh-36" value="Compra" style="shape=rhombus;strokeWidth=2;fontSize=13;perimeter=rhombusPerimeter;whiteSpace=wrap;html=1;align=center;fillColor=#d5e8d4;strokeColor=#82b366;" parent="1" vertex="1">
          <mxGeometry x="531.28" y="638.6600000000002" width="83.07692307692307" height="54.44" as="geometry" />
        </mxCell>
        <mxCell id="3gCy1ZHmhqZn4_o4P-82-32" value="N" style="resizable=0;html=1;whiteSpace=wrap;align=left;verticalAlign=bottom;direction=south;" parent="1" connectable="0" vertex="1">
          <mxGeometry x="776.5899999999999" y="637.76" as="geometry" />
        </mxCell>
        <mxCell id="eT8vk3jtKU_EM40d7Veh-39" value="cantP" style="text;html=1;align=center;verticalAlign=middle;resizable=0;points=[];autosize=1;strokeColor=none;fillColor=none;" parent="1" vertex="1">
          <mxGeometry x="442.18" y="668.4500000000002" width="50" height="30" as="geometry" />
        </mxCell>
        <mxCell id="3gCy1ZHmhqZn4_o4P-82-30" style="edgeStyle=orthogonalEdgeStyle;rounded=0;orthogonalLoop=1;jettySize=auto;html=1;entryX=1;entryY=0.5;entryDx=0;entryDy=0;endArrow=none;endFill=0;" parent="1" source="3gCy1ZHmhqZn4_o4P-82-19" target="3gCy1ZHmhqZn4_o4P-82-4" edge="1">
          <mxGeometry relative="1" as="geometry" />
        </mxCell>
        <mxCell id="eT8vk3jtKU_EM40d7Veh-16" value="" style="rounded=0;orthogonalLoop=1;jettySize=auto;html=1;entryX=0.993;entryY=0.82;entryDx=0;entryDy=0;entryPerimeter=0;" parent="1" target="eT8vk3jtKU_EM40d7Veh-17" edge="1">
          <mxGeometry relative="1" as="geometry">
            <mxPoint x="350.96000000000004" y="708.41" as="targetPoint" />
            <mxPoint x="430" y="759.2000000000002" as="sourcePoint" />
          </mxGeometry>
        </mxCell>
        <mxCell id="3gCy1ZHmhqZn4_o4P-82-33" value="N" style="resizable=0;html=1;whiteSpace=wrap;align=left;verticalAlign=bottom;direction=south;" parent="1" connectable="0" vertex="1">
          <mxGeometry x="991.79" y="677.12" as="geometry" />
        </mxCell>
        <mxCell id="3gCy1ZHmhqZn4_o4P-82-39" value="1" style="resizable=0;html=1;whiteSpace=wrap;align=right;verticalAlign=bottom;" parent="1" connectable="0" vertex="1">
          <mxGeometry x="791.7884607611459" y="824.9419047743432" as="geometry" />
        </mxCell>
        <mxCell id="eT8vk3jtKU_EM40d7Veh-17" value="&lt;u&gt;CÃ³digo&lt;/u&gt;" style="text;html=1;align=center;verticalAlign=middle;resizable=0;points=[];autosize=1;strokeColor=none;fillColor=none;" parent="1" vertex="1">
          <mxGeometry x="320" y="703.6400000000002" width="60" height="30" as="geometry" />
        </mxCell>
        <mxCell id="eT8vk3jtKU_EM40d7Veh-20" value="Costo" style="text;html=1;align=center;verticalAlign=middle;resizable=0;points=[];autosize=1;strokeColor=none;fillColor=none;" parent="1" vertex="1">
          <mxGeometry x="325" y="772.09" width="50" height="30" as="geometry" />
        </mxCell>
        <mxCell id="3gCy1ZHmhqZn4_o4P-82-40" value="" style="group" parent="1" connectable="0" vertex="1">
          <mxGeometry x="1090" y="794.8599999999999" width="61.3" height="54.44" as="geometry" />
        </mxCell>
        <mxCell id="3gCy1ZHmhqZn4_o4P-82-41" value="Limita" style="shape=rhombus;strokeWidth=2;fontSize=13;perimeter=rhombusPerimeter;whiteSpace=wrap;html=1;align=center;fillColor=#d5e8d4;strokeColor=#82b366;" parent="3gCy1ZHmhqZn4_o4P-82-40" vertex="1">
          <mxGeometry width="61.300000000000004" height="54.44" as="geometry" />
        </mxCell>
        <mxCell id="3gCy1ZHmhqZn4_o4P-82-38" value="1" style="resizable=0;html=1;whiteSpace=wrap;align=right;verticalAlign=bottom;" parent="1" connectable="0" vertex="1">
          <mxGeometry x="1001.7884607611459" y="802.0119047743433" as="geometry" />
        </mxCell>
        <mxCell id="eT8vk3jtKU_EM40d7Veh-44" value="" style="endArrow=none;html=1;rounded=0;exitX=1;exitY=0.5;exitDx=0;exitDy=0;entryX=0.5;entryY=1;entryDx=0;entryDy=0;" parent="1" source="eT8vk3jtKU_EM40d7Veh-8" target="eT8vk3jtKU_EM40d7Veh-36" edge="1">
          <mxGeometry relative="1" as="geometry">
            <mxPoint x="567.81" y="787.2600000000001" as="sourcePoint" />
            <mxPoint x="567.81" y="692.2600000000001" as="targetPoint" />
            <Array as="points">
              <mxPoint x="573" y="760.0000000000001" />
            </Array>
          </mxGeometry>
        </mxCell>
        <mxCell id="eT8vk3jtKU_EM40d7Veh-46" value="N" style="resizable=0;html=1;whiteSpace=wrap;align=right;verticalAlign=bottom;" parent="1" connectable="0" vertex="1">
          <mxGeometry x="509.99846137684176" y="777.6500000124335" as="geometry" />
        </mxCell>
        <mxCell id="eT8vk3jtKU_EM40d7Veh-19" value="Descr" style="text;html=1;align=center;verticalAlign=middle;resizable=0;points=[];autosize=1;strokeColor=none;fillColor=none;" parent="1" vertex="1">
          <mxGeometry x="325" y="747.65" width="50" height="30" as="geometry" />
        </mxCell>
        <mxCell id="eT8vk3jtKU_EM40d7Veh-18" value="Nombre" style="text;html=1;align=center;verticalAlign=middle;resizable=0;points=[];autosize=1;strokeColor=none;fillColor=none;" parent="1" vertex="1">
          <mxGeometry x="310" y="724.7600000000001" width="70" height="30" as="geometry" />
        </mxCell>
        <mxCell id="eT8vk3jtKU_EM40d7Veh-37" value="cantP" style="text;html=1;align=center;verticalAlign=middle;resizable=0;points=[];autosize=1;strokeColor=none;fillColor=none;" parent="1" vertex="1">
          <mxGeometry x="442.18" y="631.5500000000001" width="50" height="30" as="geometry" />
        </mxCell>
        <mxCell id="eT8vk3jtKU_EM40d7Veh-26" value="" style="rounded=0;orthogonalLoop=1;jettySize=auto;html=1;entryX=1.048;entryY=0.473;entryDx=0;entryDy=0;entryPerimeter=0;" parent="1" target="eT8vk3jtKU_EM40d7Veh-20" edge="1">
          <mxGeometry relative="1" as="geometry">
            <mxPoint x="350.00000000000006" y="764.1899999999999" as="targetPoint" />
            <mxPoint x="429" y="759.2000000000002" as="sourcePoint" />
          </mxGeometry>
        </mxCell>
        <mxCell id="3gCy1ZHmhqZn4_o4P-82-37" value="1" style="resizable=0;html=1;whiteSpace=wrap;align=right;verticalAlign=bottom;" parent="1" connectable="0" vertex="1">
          <mxGeometry x="942.7884607611459" y="637.7619047743433" as="geometry" />
        </mxCell>
        <mxCell id="3gCy1ZHmhqZn4_o4P-82-27" style="edgeStyle=orthogonalEdgeStyle;rounded=0;orthogonalLoop=1;jettySize=auto;html=1;entryX=0.5;entryY=0;entryDx=0;entryDy=0;endArrow=classic;endFill=1;" parent="1" source="3gCy1ZHmhqZn4_o4P-82-12" target="3gCy1ZHmhqZn4_o4P-82-3" edge="1">
          <mxGeometry relative="1" as="geometry" />
        </mxCell>
        <mxCell id="eT8vk3jtKU_EM40d7Veh-38" value="" style="rounded=0;orthogonalLoop=1;jettySize=auto;html=1;entryX=0.756;entryY=0.852;entryDx=0;entryDy=0;entryPerimeter=0;exitX=0;exitY=0.5;exitDx=0;exitDy=0;" parent="1" source="eT8vk3jtKU_EM40d7Veh-36" target="eT8vk3jtKU_EM40d7Veh-37" edge="1">
          <mxGeometry relative="1" as="geometry">
            <mxPoint x="476.47" y="637.2500000000001" as="targetPoint" />
            <mxPoint x="526.47" y="668.4500000000002" as="sourcePoint" />
          </mxGeometry>
        </mxCell>
        <mxCell id="eT8vk3jtKU_EM40d7Veh-24" value="" style="rounded=0;orthogonalLoop=1;jettySize=auto;html=1;" parent="1" target="eT8vk3jtKU_EM40d7Veh-18" edge="1">
          <mxGeometry relative="1" as="geometry">
            <mxPoint x="351.9200000000001" y="722.0500000000001" as="targetPoint" />
            <mxPoint x="430" y="759.2000000000002" as="sourcePoint" />
          </mxGeometry>
        </mxCell>
        <mxCell id="3gCy1ZHmhqZn4_o4P-82-36" value="N" style="resizable=0;html=1;whiteSpace=wrap;align=left;verticalAlign=bottom;direction=south;" parent="1" connectable="0" vertex="1">
          <mxGeometry x="1042.79" y="810" as="geometry" />
        </mxCell>
        <mxCell id="eT8vk3jtKU_EM40d7Veh-25" value="" style="rounded=0;orthogonalLoop=1;jettySize=auto;html=1;entryX=1.064;entryY=0.472;entryDx=0;entryDy=0;entryPerimeter=0;" parent="1" target="eT8vk3jtKU_EM40d7Veh-19" edge="1">
          <mxGeometry relative="1" as="geometry">
            <mxPoint x="351.9200000000001" y="732.8000000000001" as="targetPoint" />
            <mxPoint x="430" y="759.2000000000002" as="sourcePoint" />
          </mxGeometry>
        </mxCell>
        <mxCell id="eT8vk3jtKU_EM40d7Veh-40" value="" style="rounded=0;orthogonalLoop=1;jettySize=auto;html=1;entryX=1.049;entryY=0.748;entryDx=0;entryDy=0;entryPerimeter=0;exitX=0;exitY=0.5;exitDx=0;exitDy=0;" parent="1" source="eT8vk3jtKU_EM40d7Veh-36" edge="1">
          <mxGeometry relative="1" as="geometry">
            <mxPoint x="485" y="680.0000000000001" as="targetPoint" />
            <mxPoint x="524" y="696.0000000000001" as="sourcePoint" />
          </mxGeometry>
        </mxCell>
        <mxCell id="v4do-Kpl7I2UpU8D8rJy-23" value="" style="endArrow=none;html=1;rounded=0;exitX=1;exitY=0.5;exitDx=0;exitDy=0;entryX=0;entryY=0.5;entryDx=0;entryDy=0;endFill=0;" parent="1" source="v4do-Kpl7I2UpU8D8rJy-9" target="v4do-Kpl7I2UpU8D8rJy-12" edge="1">
          <mxGeometry relative="1" as="geometry">
            <mxPoint x="288.41999999999996" y="-23.48999999999998" as="sourcePoint" />
            <mxPoint x="448.41999999999996" y="-23.48999999999998" as="targetPoint" />
          </mxGeometry>
        </mxCell>
        <mxCell id="v4do-Kpl7I2UpU8D8rJy-25" value="N" style="resizable=0;html=1;whiteSpace=wrap;align=right;verticalAlign=bottom;" parent="v4do-Kpl7I2UpU8D8rJy-23" connectable="0" vertex="1">
          <mxGeometry x="1" relative="1" as="geometry">
            <mxPoint x="-7" as="offset" />
          </mxGeometry>
        </mxCell>
        <mxCell id="3gCy1ZHmhqZn4_o4P-82-48" value="&lt;div style=&quot;text-align: left;&quot;&gt;&lt;span style=&quot;font-size: 8px;&quot;&gt;Codigo&amp;nbsp; Nombre&amp;nbsp; Coordenadas&lt;/span&gt;&lt;/div&gt;" style="text;html=1;strokeColor=none;fillColor=none;align=center;verticalAlign=middle;whiteSpace=wrap;rounded=0;" parent="1" vertex="1">
          <mxGeometry x="670" y="687.1" width="141.79" height="15.78" as="geometry" />
        </mxCell>
        <mxCell id="3gCy1ZHmhqZn4_o4P-82-49" style="rounded=0;orthogonalLoop=1;jettySize=auto;html=1;exitX=0;exitY=0.5;exitDx=0;exitDy=0;entryX=0.205;entryY=-0.065;entryDx=0;entryDy=0;entryPerimeter=0;" parent="1" target="3gCy1ZHmhqZn4_o4P-82-48" edge="1">
          <mxGeometry relative="1" as="geometry">
            <mxPoint x="691.79" y="687.1" as="targetPoint" />
            <mxPoint x="711.79" y="662.2" as="sourcePoint" />
          </mxGeometry>
        </mxCell>
        <mxCell id="v4do-Kpl7I2UpU8D8rJy-29" value="" style="endArrow=none;dashed=1;html=1;rounded=0;exitX=0;exitY=1;exitDx=0;exitDy=0;entryX=1;entryY=1;entryDx=0;entryDy=0;" parent="1" source="nd5mDW07AQeA4QpzedI7-19" target="nd5mDW07AQeA4QpzedI7-19" edge="1">
          <mxGeometry width="50" height="50" relative="1" as="geometry">
            <mxPoint x="420" y="240" as="sourcePoint" />
            <mxPoint x="470" y="190" as="targetPoint" />
          </mxGeometry>
        </mxCell>
        <mxCell id="3gCy1ZHmhqZn4_o4P-82-51" style="rounded=0;orthogonalLoop=1;jettySize=auto;html=1;exitX=0;exitY=0.5;exitDx=0;exitDy=0;entryX=0.424;entryY=0.081;entryDx=0;entryDy=0;entryPerimeter=0;" parent="1" target="3gCy1ZHmhqZn4_o4P-82-48" edge="1">
          <mxGeometry relative="1" as="geometry">
            <mxPoint x="718.79" y="685.14" as="targetPoint" />
            <mxPoint x="731.79" y="661.34" as="sourcePoint" />
          </mxGeometry>
        </mxCell>
        <mxCell id="3gCy1ZHmhqZn4_o4P-82-54" style="rounded=0;orthogonalLoop=1;jettySize=auto;html=1;exitX=0.658;exitY=0.983;exitDx=0;exitDy=0;entryX=0.424;entryY=0.081;entryDx=0;entryDy=0;entryPerimeter=0;exitPerimeter=0;" parent="1" source="3gCy1ZHmhqZn4_o4P-82-48" edge="1">
          <mxGeometry relative="1" as="geometry">
            <mxPoint x="756.66" y="727.54" as="targetPoint" />
            <mxPoint x="758.66" y="700.88" as="sourcePoint" />
          </mxGeometry>
        </mxCell>
        <mxCell id="3gCy1ZHmhqZn4_o4P-82-55" style="rounded=0;orthogonalLoop=1;jettySize=auto;html=1;exitX=0.799;exitY=1.056;exitDx=0;exitDy=0;entryX=0.424;entryY=0.081;entryDx=0;entryDy=0;entryPerimeter=0;exitPerimeter=0;" parent="1" source="3gCy1ZHmhqZn4_o4P-82-48" edge="1">
          <mxGeometry relative="1" as="geometry">
            <mxPoint x="787.66" y="727.54" as="targetPoint" />
            <mxPoint x="789.66" y="700.88" as="sourcePoint" />
          </mxGeometry>
        </mxCell>
        <mxCell id="3gCy1ZHmhqZn4_o4P-82-56" value="" style="endArrow=none;html=1;rounded=0;dashed=1;" parent="1" edge="1">
          <mxGeometry width="50" height="50" relative="1" as="geometry">
            <mxPoint x="686.5899999999999" y="702.5600000000001" as="sourcePoint" />
            <mxPoint x="708.5899999999999" y="702.62" as="targetPoint" />
          </mxGeometry>
        </mxCell>
        <mxCell id="3gCy1ZHmhqZn4_o4P-82-57" value="&lt;div style=&quot;text-align: left;&quot;&gt;&lt;span style=&quot;font-size: 8px;&quot;&gt;Longitud&amp;nbsp; &amp;nbsp;Latitud&lt;/span&gt;&lt;/div&gt;" style="text;html=1;strokeColor=none;fillColor=none;align=center;verticalAlign=middle;whiteSpace=wrap;rounded=0;" parent="1" vertex="1">
          <mxGeometry x="699" y="723" width="141.79" height="15.78" as="geometry" />
        </mxCell>
        <mxCell id="v4do-Kpl7I2UpU8D8rJy-30" value="" style="group" parent="1" connectable="0" vertex="1">
          <mxGeometry x="90" y="550" width="90" height="54.44" as="geometry" />
        </mxCell>
        <mxCell id="v4do-Kpl7I2UpU8D8rJy-31" value="C-H" style="shape=rhombus;strokeWidth=2;fontSize=13;perimeter=rhombusPerimeter;whiteSpace=wrap;html=1;align=center;fillColor=#d5e8d4;strokeColor=#82b366;" parent="v4do-Kpl7I2UpU8D8rJy-30" vertex="1">
          <mxGeometry width="83.07692307692307" height="54.44" as="geometry" />
        </mxCell>
        <mxCell id="3gCy1ZHmhqZn4_o4P-82-58" value="&lt;div style=&quot;text-align: left;&quot;&gt;&lt;span style=&quot;font-size: 8px;&quot;&gt;Codigo&amp;nbsp; Nombre&amp;nbsp; ZonaHoraria&lt;/span&gt;&lt;/div&gt;" style="text;html=1;strokeColor=none;fillColor=none;align=center;verticalAlign=middle;whiteSpace=wrap;rounded=0;" parent="1" vertex="1">
          <mxGeometry x="930.89" y="560" width="141.79" height="15.78" as="geometry" />
        </mxCell>
        <mxCell id="3gCy1ZHmhqZn4_o4P-82-59" style="rounded=0;orthogonalLoop=1;jettySize=auto;html=1;exitX=0.242;exitY=-0.07;exitDx=0;exitDy=0;exitPerimeter=0;entryX=0.216;entryY=0.979;entryDx=0;entryDy=0;entryPerimeter=0;" parent="1" source="3gCy1ZHmhqZn4_o4P-82-2" target="3gCy1ZHmhqZn4_o4P-82-58" edge="1">
          <mxGeometry relative="1" as="geometry">
            <mxPoint x="911.79" y="570" as="targetPoint" />
            <mxPoint x="924.66" y="600" as="sourcePoint" />
          </mxGeometry>
        </mxCell>
        <mxCell id="3gCy1ZHmhqZn4_o4P-82-60" style="rounded=0;orthogonalLoop=1;jettySize=auto;html=1;exitX=0.434;exitY=-0.04;exitDx=0;exitDy=0;exitPerimeter=0;entryX=0.423;entryY=0.951;entryDx=0;entryDy=0;entryPerimeter=0;" parent="1" source="3gCy1ZHmhqZn4_o4P-82-2" target="3gCy1ZHmhqZn4_o4P-82-58" edge="1">
          <mxGeometry relative="1" as="geometry">
            <mxPoint x="971.79" y="585" as="targetPoint" />
            <mxPoint x="981.79" y="620" as="sourcePoint" />
          </mxGeometry>
        </mxCell>
        <mxCell id="3gCy1ZHmhqZn4_o4P-82-61" style="rounded=0;orthogonalLoop=1;jettySize=auto;html=1;exitX=0.575;exitY=-0.07;exitDx=0;exitDy=0;exitPerimeter=0;entryX=0.721;entryY=0.951;entryDx=0;entryDy=0;entryPerimeter=0;" parent="1" source="3gCy1ZHmhqZn4_o4P-82-2" target="3gCy1ZHmhqZn4_o4P-82-58" edge="1">
          <mxGeometry relative="1" as="geometry">
            <mxPoint x="1000.79" y="585" as="targetPoint" />
            <mxPoint x="1004.79" y="621" as="sourcePoint" />
          </mxGeometry>
        </mxCell>
        <mxCell id="3gCy1ZHmhqZn4_o4P-82-62" value="" style="endArrow=none;html=1;rounded=0;dashed=1;" parent="1" edge="1">
          <mxGeometry width="50" height="50" relative="1" as="geometry">
            <mxPoint x="949.79" y="574" as="sourcePoint" />
            <mxPoint x="971.79" y="574.06" as="targetPoint" />
          </mxGeometry>
        </mxCell>
        <mxCell id="3gCy1ZHmhqZn4_o4P-82-63" value="&lt;div style=&quot;text-align: left;&quot;&gt;&lt;span style=&quot;font-size: 8px;&quot;&gt;&lt;u&gt;Codigo&amp;nbsp;&lt;/u&gt; Nombre&amp;nbsp; PrefijoTel&lt;/span&gt;&lt;/div&gt;" style="text;html=1;strokeColor=none;fillColor=none;align=center;verticalAlign=middle;whiteSpace=wrap;rounded=0;" parent="1" vertex="1">
          <mxGeometry x="931.89" y="900" width="141.79" height="15.78" as="geometry" />
        </mxCell>
        <mxCell id="v4do-Kpl7I2UpU8D8rJy-37" value="" style="endArrow=none;html=1;rounded=0;exitX=1;exitY=0.5;exitDx=0;exitDy=0;entryX=0.5;entryY=0;entryDx=0;entryDy=0;" parent="1" source="v4do-Kpl7I2UpU8D8rJy-31" target="3gCy1ZHmhqZn4_o4P-82-1" edge="1">
          <mxGeometry relative="1" as="geometry">
            <mxPoint x="200" y="450" as="sourcePoint" />
            <mxPoint x="700" y="530" as="targetPoint" />
            <Array as="points">
              <mxPoint x="732" y="577" />
            </Array>
          </mxGeometry>
        </mxCell>
        <mxCell id="v4do-Kpl7I2UpU8D8rJy-39" value="1" style="resizable=0;html=1;whiteSpace=wrap;align=right;verticalAlign=bottom;" parent="v4do-Kpl7I2UpU8D8rJy-37" connectable="0" vertex="1">
          <mxGeometry x="1" relative="1" as="geometry" />
        </mxCell>
        <mxCell id="3gCy1ZHmhqZn4_o4P-82-66" style="rounded=0;orthogonalLoop=1;jettySize=auto;html=1;exitX=0.302;exitY=1.026;exitDx=0;exitDy=0;exitPerimeter=0;entryX=0.282;entryY=-0.044;entryDx=0;entryDy=0;entryPerimeter=0;" parent="1" source="3gCy1ZHmhqZn4_o4P-82-3" target="3gCy1ZHmhqZn4_o4P-82-63" edge="1">
          <mxGeometry relative="1" as="geometry">
            <mxPoint x="889.1" y="847.86" as="targetPoint" />
            <mxPoint x="899.1" y="882.86" as="sourcePoint" />
          </mxGeometry>
        </mxCell>
        <mxCell id="3gCy1ZHmhqZn4_o4P-82-67" style="rounded=0;orthogonalLoop=1;jettySize=auto;html=1;exitX=0.5;exitY=1;exitDx=0;exitDy=0;entryX=0.479;entryY=-0.044;entryDx=0;entryDy=0;entryPerimeter=0;" parent="1" source="3gCy1ZHmhqZn4_o4P-82-3" target="3gCy1ZHmhqZn4_o4P-82-63" edge="1">
          <mxGeometry relative="1" as="geometry">
            <mxPoint x="939" y="843" as="targetPoint" />
            <mxPoint x="955" y="821" as="sourcePoint" />
          </mxGeometry>
        </mxCell>
        <mxCell id="3gCy1ZHmhqZn4_o4P-82-68" style="rounded=0;orthogonalLoop=1;jettySize=auto;html=1;exitX=0.642;exitY=1.015;exitDx=0;exitDy=0;entryX=0.705;entryY=0.056;entryDx=0;entryDy=0;entryPerimeter=0;exitPerimeter=0;" parent="1" source="3gCy1ZHmhqZn4_o4P-82-3" target="3gCy1ZHmhqZn4_o4P-82-63" edge="1">
          <mxGeometry relative="1" as="geometry">
            <mxPoint x="967" y="843" as="targetPoint" />
            <mxPoint x="971" y="820" as="sourcePoint" />
          </mxGeometry>
        </mxCell>
        <mxCell id="3gCy1ZHmhqZn4_o4P-82-70" value="&lt;div style=&quot;text-align: left;&quot;&gt;&lt;span style=&quot;font-size: 8px;&quot;&gt;&lt;u&gt;Codigo&lt;/u&gt;&amp;nbsp; Nombre&amp;nbsp;&lt;/span&gt;&lt;/div&gt;" style="text;html=1;strokeColor=none;fillColor=none;align=center;verticalAlign=middle;whiteSpace=wrap;rounded=0;" parent="1" vertex="1">
          <mxGeometry x="650" y="870" width="141.79" height="15.78" as="geometry" />
        </mxCell>
        <mxCell id="3gCy1ZHmhqZn4_o4P-82-71" style="rounded=0;orthogonalLoop=1;jettySize=auto;html=1;exitX=0.406;exitY=0.993;exitDx=0;exitDy=0;exitPerimeter=0;entryX=0.381;entryY=-0.043;entryDx=0;entryDy=0;entryPerimeter=0;" parent="1" source="3gCy1ZHmhqZn4_o4P-82-4" target="3gCy1ZHmhqZn4_o4P-82-70" edge="1">
          <mxGeometry relative="1" as="geometry">
            <mxPoint x="657.21" y="836.65" as="targetPoint" />
            <mxPoint x="673.21" y="814.65" as="sourcePoint" />
          </mxGeometry>
        </mxCell>
        <mxCell id="3gCy1ZHmhqZn4_o4P-82-72" style="rounded=0;orthogonalLoop=1;jettySize=auto;html=1;exitX=0.569;exitY=1.026;exitDx=0;exitDy=0;exitPerimeter=0;entryX=0.63;entryY=-0.076;entryDx=0;entryDy=0;entryPerimeter=0;" parent="1" source="3gCy1ZHmhqZn4_o4P-82-4" target="3gCy1ZHmhqZn4_o4P-82-70" edge="1">
          <mxGeometry relative="1" as="geometry">
            <mxPoint x="672" y="853" as="targetPoint" />
            <mxPoint x="685" y="820" as="sourcePoint" />
          </mxGeometry>
        </mxCell>
        <mxCell id="v4do-Kpl7I2UpU8D8rJy-34" value="" style="endArrow=none;html=1;rounded=0;exitX=0.5;exitY=1;exitDx=0;exitDy=0;entryX=0.5;entryY=0;entryDx=0;entryDy=0;" parent="1" source="4cd4486c729dc68b-1" target="v4do-Kpl7I2UpU8D8rJy-31" edge="1">
          <mxGeometry relative="1" as="geometry">
            <mxPoint x="90" y="290" as="sourcePoint" />
            <mxPoint x="250" y="290" as="targetPoint" />
          </mxGeometry>
        </mxCell>
        <mxCell id="v4do-Kpl7I2UpU8D8rJy-35" value="N" style="resizable=0;html=1;whiteSpace=wrap;align=left;verticalAlign=bottom;" parent="v4do-Kpl7I2UpU8D8rJy-34" connectable="0" vertex="1">
          <mxGeometry x="-1" relative="1" as="geometry">
            <mxPoint y="20" as="offset" />
          </mxGeometry>
        </mxCell>
        <mxCell id="3gCy1ZHmhqZn4_o4P-82-73" style="edgeStyle=orthogonalEdgeStyle;rounded=0;orthogonalLoop=1;jettySize=auto;html=1;entryX=1.015;entryY=0.136;entryDx=0;entryDy=0;entryPerimeter=0;endArrow=none;endFill=0;" edge="1" parent="1" source="3gCy1ZHmhqZn4_o4P-82-41" target="3gCy1ZHmhqZn4_o4P-82-3">
          <mxGeometry relative="1" as="geometry">
            <Array as="points">
              <mxPoint x="1066" y="809" />
            </Array>
          </mxGeometry>
        </mxCell>
        <mxCell id="3gCy1ZHmhqZn4_o4P-82-74" style="edgeStyle=orthogonalEdgeStyle;rounded=0;orthogonalLoop=1;jettySize=auto;html=1;entryX=1.031;entryY=0.935;entryDx=0;entryDy=0;entryPerimeter=0;endArrow=none;endFill=0;" edge="1" parent="1" source="3gCy1ZHmhqZn4_o4P-82-41" target="3gCy1ZHmhqZn4_o4P-82-3">
          <mxGeometry relative="1" as="geometry">
            <Array as="points">
              <mxPoint x="1077" y="847" />
              <mxPoint x="1077" y="847" />
            </Array>
          </mxGeometry>
        </mxCell>
        <mxCell id="bd25N0L1a1d7uhiXXjhJ-5" style="edgeStyle=orthogonalEdgeStyle;rounded=0;orthogonalLoop=1;jettySize=auto;html=1;" edge="1" parent="1" source="bd25N0L1a1d7uhiXXjhJ-4">
          <mxGeometry relative="1" as="geometry">
            <mxPoint x="810" y="427.5400000000001" as="targetPoint" />
          </mxGeometry>
        </mxCell>
        <mxCell id="bd25N0L1a1d7uhiXXjhJ-4" value="Hace" style="shape=rhombus;strokeWidth=2;fontSize=13;perimeter=rhombusPerimeter;whiteSpace=wrap;html=1;align=center;fillColor=#d5e8d4;strokeColor=#82b366;" vertex="1" parent="1">
          <mxGeometry x="580" y="400.32000000000005" width="83.07692307692307" height="54.44" as="geometry" />
        </mxCell>
        <mxCell id="bd25N0L1a1d7uhiXXjhJ-6" value="" style="endArrow=none;html=1;rounded=0;entryX=0;entryY=0.5;entryDx=0;entryDy=0;exitDx=0;exitDy=0;" edge="1" parent="1" source="v4do-Kpl7I2UpU8D8rJy-43" target="bd25N0L1a1d7uhiXXjhJ-4">
          <mxGeometry width="50" height="50" relative="1" as="geometry">
            <mxPoint x="456.83" y="430" as="sourcePoint" />
            <mxPoint x="506.83" y="380" as="targetPoint" />
          </mxGeometry>
        </mxCell>
        <mxCell id="bd25N0L1a1d7uhiXXjhJ-7" value="1" style="resizable=0;html=1;whiteSpace=wrap;align=right;verticalAlign=bottom;" connectable="0" vertex="1" parent="1">
          <mxGeometry x="789.998364139162" y="423.43955573024783" as="geometry" />
        </mxCell>
        <mxCell id="bd25N0L1a1d7uhiXXjhJ-8" value="N" style="resizable=0;html=1;whiteSpace=wrap;align=right;verticalAlign=bottom;" connectable="0" vertex="1" parent="1">
          <mxGeometry x="469.99836413916205" y="423.43955573024783" as="geometry" />
        </mxCell>
        <mxCell id="v4do-Kpl7I2UpU8D8rJy-44" value="" style="endArrow=none;html=1;rounded=0;entryDx=0;entryDy=0;exitX=1;exitY=0.5;exitDx=0;exitDy=0;" edge="1" parent="1" source="nd5mDW07AQeA4QpzedI7-45" target="v4do-Kpl7I2UpU8D8rJy-43">
          <mxGeometry width="50" height="50" relative="1" as="geometry">
            <mxPoint x="457" y="428" as="sourcePoint" />
            <mxPoint x="580" y="428" as="targetPoint" />
          </mxGeometry>
        </mxCell>
        <mxCell id="v4do-Kpl7I2UpU8D8rJy-43" value="" style="shape=waypoint;sketch=0;fillStyle=solid;size=6;pointerEvents=1;points=[];fillColor=none;resizable=0;rotatable=0;perimeter=centerPerimeter;snapToPoint=1;" vertex="1" parent="1">
          <mxGeometry x="571.303846153846" y="417.53999999999996" width="20" height="20" as="geometry" />
        </mxCell>
        <mxCell id="3gCy1ZHmhqZn4_o4P-82-77" value="1" style="resizable=0;html=1;whiteSpace=wrap;align=right;verticalAlign=bottom;" connectable="0" vertex="1" parent="1">
          <mxGeometry x="765.0000808638171" y="613.3535609777497" as="geometry" />
        </mxCell>
        <mxCell id="3gCy1ZHmhqZn4_o4P-82-78" value="" style="rounded=0;whiteSpace=wrap;html=1;fillColor=none;" vertex="1" parent="1">
          <mxGeometry x="300" y="90" width="210" height="390" as="geometry" />
        </mxCell>
        <mxCell id="bd25N0L1a1d7uhiXXjhJ-14" value="" style="rounded=0;whiteSpace=wrap;html=1;fillColor=none;" vertex="1" parent="1">
          <mxGeometry x="277.76" y="370" width="622.24" height="150" as="geometry" />
        </mxCell>
        <mxCell id="bd25N0L1a1d7uhiXXjhJ-15" value="" style="endArrow=none;html=1;rounded=0;exitX=0.5;exitY=0;exitDx=0;exitDy=0;entryX=0.475;entryY=0.999;entryDx=0;entryDy=0;entryPerimeter=0;" edge="1" parent="1" source="eT8vk3jtKU_EM40d7Veh-36" target="bd25N0L1a1d7uhiXXjhJ-14">
          <mxGeometry width="50" height="50" relative="1" as="geometry">
            <mxPoint x="570" y="638.35" as="sourcePoint" />
            <mxPoint x="570" y="520" as="targetPoint" />
          </mxGeometry>
        </mxCell>
        <mxCell id="3gCy1ZHmhqZn4_o4P-82-81" style="edgeStyle=orthogonalEdgeStyle;rounded=0;orthogonalLoop=1;jettySize=auto;html=1;endArrow=none;endFill=0;entryX=0.999;entryY=0.549;entryDx=0;entryDy=0;entryPerimeter=0;" edge="1" parent="1" source="3gCy1ZHmhqZn4_o4P-82-80" target="3gCy1ZHmhqZn4_o4P-82-78">
          <mxGeometry relative="1" as="geometry">
            <mxPoint x="510" y="304" as="targetPoint" />
          </mxGeometry>
        </mxCell>
        <mxCell id="bd25N0L1a1d7uhiXXjhJ-17" value="N" style="resizable=0;html=1;whiteSpace=wrap;align=left;verticalAlign=bottom;direction=west;" connectable="0" vertex="1" parent="1">
          <mxGeometry x="572.8199999999998" y="540" as="geometry" />
        </mxCell>
        <mxCell id="3gCy1ZHmhqZn4_o4P-82-83" value="N" style="resizable=0;html=1;whiteSpace=wrap;align=left;verticalAlign=bottom;" connectable="0" vertex="1" parent="1">
          <mxGeometry x="988.4399999999999" y="227.89" as="geometry" />
        </mxCell>
        <mxCell id="3gCy1ZHmhqZn4_o4P-82-79" value="" style="group" connectable="0" vertex="1" parent="1">
          <mxGeometry x="615.29" y="277.07" width="80" height="54.44" as="geometry" />
        </mxCell>
        <mxCell id="3gCy1ZHmhqZn4_o4P-82-80" value="Registra" style="shape=rhombus;strokeWidth=2;fontSize=13;perimeter=rhombusPerimeter;whiteSpace=wrap;html=1;align=center;fillColor=#d5e8d4;strokeColor=#82b366;" vertex="1" parent="3gCy1ZHmhqZn4_o4P-82-79">
          <mxGeometry width="80" height="54.44" as="geometry" />
        </mxCell>
        <mxCell id="3gCy1ZHmhqZn4_o4P-82-82" style="edgeStyle=orthogonalEdgeStyle;rounded=0;orthogonalLoop=1;jettySize=auto;html=1;entryX=0.5;entryY=0;entryDx=0;entryDy=0;endArrow=none;endFill=0;" edge="1" parent="1" source="3gCy1ZHmhqZn4_o4P-82-80" target="nd5mDW07AQeA4QpzedI7-70">
          <mxGeometry relative="1" as="geometry" />
        </mxCell>
        <mxCell id="3gCy1ZHmhqZn4_o4P-82-84" value="N" style="resizable=0;html=1;whiteSpace=wrap;align=left;verticalAlign=bottom;" connectable="0" vertex="1" parent="1">
          <mxGeometry x="991.79" y="277.07" as="geometry">
            <mxPoint x="-476" y="23" as="offset" />
          </mxGeometry>
        </mxCell>
      </root>
    </mxGraphModel>
  </diagram>
  <diagram id="cdb5e136-1861-7ef1-5e76-c57f7e18aa8d" name="ERD Data Structure - Habit Tracker App">
    <mxGraphModel pageWidth="1100" pageHeight="850" fold="1" pageScale="1" math="0" shadow="0">
      <root>
        <mxCell id="0" />
        <mxCell id="1" parent="0" />
        <mxCell id="4a63a70a29bb4ada-31" value="" style="edgeStyle=none;rounded=0;html=1;startArrow=ERzeroToMany;startFill=1;endArrow=ERzeroToOne;endFill=1;jettySize=auto;orthogonalLoop=1;fontSize=10;strokeColor=#000066;" edge="1" source="4a63a70a29bb4ada-1" target="4a63a70a29bb4ada-18" parent="1">
          <mxGeometry relative="1" as="geometry" />
        </mxCell>
        <mxCell id="4a63a70a29bb4ada-45" value="" style="edgeStyle=none;rounded=0;html=1;startArrow=ERoneToMany;startFill=0;endArrow=ERzeroToMany;endFill=1;jettySize=auto;orthogonalLoop=1;fontSize=10;strokeColor=#000066;" edge="1" source="4a63a70a29bb4ada-1" target="4a63a70a29bb4ada-32" parent="1">
          <mxGeometry relative="1" as="geometry" />
        </mxCell>
        <mxCell id="4a63a70a29bb4ada-1" value="Users" style="swimlane;fontStyle=0;childLayout=stackLayout;horizontal=1;startSize=26;fillColor=#ffe6cc;horizontalStack=0;resizeParent=1;resizeParentMax=0;resizeLast=0;collapsible=1;marginBottom=0;swimlaneFillColor=#ffffff;align=center;strokeWidth=1;fontSize=13;strokeColor=#d79b00;" vertex="1" parent="1">
          <mxGeometry x="80" y="41" width="160" height="144" as="geometry" />
        </mxCell>
        <mxCell id="4a63a70a29bb4ada-2" value="UserID" style="shape=partialRectangle;top=0;left=0;right=0;bottom=1;align=left;verticalAlign=middle;fillColor=none;spacingLeft=34;spacingRight=4;overflow=hidden;rotatable=0;points=[[0,0.5],[1,0.5]];portConstraint=eastwest;dropTarget=0;fontStyle=5;" vertex="1" parent="4a63a70a29bb4ada-1">
          <mxGeometry y="26" width="160" height="30" as="geometry" />
        </mxCell>
        <mxCell id="4a63a70a29bb4ada-3" value="PK" style="shape=partialRectangle;top=0;left=0;bottom=0;fillColor=none;align=left;verticalAlign=middle;spacingLeft=4;spacingRight=4;overflow=hidden;rotatable=0;points=[];portConstraint=eastwest;part=1;fontStyle=1" vertex="1" connectable="0" parent="4a63a70a29bb4ada-2">
          <mxGeometry width="30" height="30" as="geometry" />
        </mxCell>
        <mxCell id="4a63a70a29bb4ada-6" value="CoachID" style="shape=partialRectangle;top=0;left=0;right=0;bottom=0;align=left;verticalAlign=top;fillColor=none;spacingLeft=34;spacingRight=4;overflow=hidden;rotatable=0;points=[[0,0.5],[1,0.5]];portConstraint=eastwest;dropTarget=0;fontStyle=2" vertex="1" parent="4a63a70a29bb4ada-1">
          <mxGeometry y="56" width="160" height="26" as="geometry" />
        </mxCell>
        <mxCell id="4a63a70a29bb4ada-7" value="FK" style="shape=partialRectangle;top=0;left=0;bottom=0;fillColor=none;align=left;verticalAlign=top;spacingLeft=4;spacingRight=4;overflow=hidden;rotatable=0;points=[];portConstraint=eastwest;part=1;fontStyle=2" vertex="1" connectable="0" parent="4a63a70a29bb4ada-6">
          <mxGeometry width="30" height="26" as="geometry" />
        </mxCell>
        <mxCell id="5ecfb9fce94ea102-8" value="Name" style="shape=partialRectangle;top=0;left=0;right=0;bottom=0;align=left;verticalAlign=top;fillColor=none;spacingLeft=34;spacingRight=4;overflow=hidden;rotatable=0;points=[[0,0.5],[1,0.5]];portConstraint=eastwest;dropTarget=0;" vertex="1" parent="4a63a70a29bb4ada-1">
          <mxGeometry y="82" width="160" height="26" as="geometry" />
        </mxCell>
        <mxCell id="5ecfb9fce94ea102-9" value="" style="shape=partialRectangle;top=0;left=0;bottom=0;fillColor=none;align=left;verticalAlign=top;spacingLeft=4;spacingRight=4;overflow=hidden;rotatable=0;points=[];portConstraint=eastwest;part=1;" vertex="1" connectable="0" parent="5ecfb9fce94ea102-8">
          <mxGeometry width="30" height="26" as="geometry" />
        </mxCell>
        <mxCell id="4a63a70a29bb4ada-16" value="HabitNum" style="shape=partialRectangle;top=0;left=0;right=0;bottom=0;align=left;verticalAlign=top;fillColor=none;spacingLeft=34;spacingRight=4;overflow=hidden;rotatable=0;points=[[0,0.5],[1,0.5]];portConstraint=eastwest;dropTarget=0;" vertex="1" parent="4a63a70a29bb4ada-1">
          <mxGeometry y="108" width="160" height="26" as="geometry" />
        </mxCell>
        <mxCell id="4a63a70a29bb4ada-17" value="" style="shape=partialRectangle;top=0;left=0;bottom=0;fillColor=none;align=left;verticalAlign=top;spacingLeft=4;spacingRight=4;overflow=hidden;rotatable=0;points=[];portConstraint=eastwest;part=1;" vertex="1" connectable="0" parent="4a63a70a29bb4ada-16">
          <mxGeometry width="30" height="26" as="geometry" />
        </mxCell>
        <mxCell id="4a63a70a29bb4ada-10" value="" style="shape=partialRectangle;top=0;left=0;right=0;bottom=0;align=left;verticalAlign=top;fillColor=none;spacingLeft=34;spacingRight=4;overflow=hidden;rotatable=0;points=[[0,0.5],[1,0.5]];portConstraint=eastwest;dropTarget=0;" vertex="1" parent="4a63a70a29bb4ada-1">
          <mxGeometry y="134" width="160" height="10" as="geometry" />
        </mxCell>
        <mxCell id="4a63a70a29bb4ada-11" value="" style="shape=partialRectangle;top=0;left=0;bottom=0;fillColor=none;align=left;verticalAlign=top;spacingLeft=4;spacingRight=4;overflow=hidden;rotatable=0;points=[];portConstraint=eastwest;part=1;" vertex="1" connectable="0" parent="4a63a70a29bb4ada-10">
          <mxGeometry width="30" height="10" as="geometry" />
        </mxCell>
        <mxCell id="4a63a70a29bb4ada-32" value="Habits" style="swimlane;fontStyle=0;childLayout=stackLayout;horizontal=1;startSize=26;fillColor=#FFE6CC;horizontalStack=0;resizeParent=1;resizeParentMax=0;resizeLast=0;collapsible=1;marginBottom=0;swimlaneFillColor=#ffffff;align=center;strokeWidth=1;fontSize=13;strokeColor=#d79b00;" vertex="1" parent="1">
          <mxGeometry x="429" y="67" width="160" height="92" as="geometry" />
        </mxCell>
        <mxCell id="4a63a70a29bb4ada-33" value="HabitID" style="shape=partialRectangle;top=0;left=0;right=0;bottom=1;align=left;verticalAlign=middle;fillColor=none;spacingLeft=34;spacingRight=4;overflow=hidden;rotatable=0;points=[[0,0.5],[1,0.5]];portConstraint=eastwest;dropTarget=0;fontStyle=5;" vertex="1" parent="4a63a70a29bb4ada-32">
          <mxGeometry y="26" width="160" height="30" as="geometry" />
        </mxCell>
        <mxCell id="4a63a70a29bb4ada-34" value="PK" style="shape=partialRectangle;top=0;left=0;bottom=0;fillColor=none;align=left;verticalAlign=middle;spacingLeft=4;spacingRight=4;overflow=hidden;rotatable=0;points=[];portConstraint=eastwest;part=1;fontStyle=1" vertex="1" connectable="0" parent="4a63a70a29bb4ada-33">
          <mxGeometry width="30" height="30" as="geometry" />
        </mxCell>
        <mxCell id="4a63a70a29bb4ada-37" value="HabitName" style="shape=partialRectangle;top=0;left=0;right=0;bottom=0;align=left;verticalAlign=top;fillColor=none;spacingLeft=34;spacingRight=4;overflow=hidden;rotatable=0;points=[[0,0.5],[1,0.5]];portConstraint=eastwest;dropTarget=0;" vertex="1" parent="4a63a70a29bb4ada-32">
          <mxGeometry y="56" width="160" height="26" as="geometry" />
        </mxCell>
        <mxCell id="4a63a70a29bb4ada-38" value="" style="shape=partialRectangle;top=0;left=0;bottom=0;fillColor=none;align=left;verticalAlign=top;spacingLeft=4;spacingRight=4;overflow=hidden;rotatable=0;points=[];portConstraint=eastwest;part=1;" vertex="1" connectable="0" parent="4a63a70a29bb4ada-37">
          <mxGeometry width="30" height="26" as="geometry" />
        </mxCell>
        <mxCell id="4a63a70a29bb4ada-43" value="" style="shape=partialRectangle;top=0;left=0;right=0;bottom=0;align=left;verticalAlign=top;fillColor=none;spacingLeft=34;spacingRight=4;overflow=hidden;rotatable=0;points=[[0,0.5],[1,0.5]];portConstraint=eastwest;dropTarget=0;" vertex="1" parent="4a63a70a29bb4ada-32">
          <mxGeometry y="82" width="160" height="10" as="geometry" />
        </mxCell>
        <mxCell id="4a63a70a29bb4ada-44" value="" style="shape=partialRectangle;top=0;left=0;bottom=0;fillColor=none;align=left;verticalAlign=top;spacingLeft=4;spacingRight=4;overflow=hidden;rotatable=0;points=[];portConstraint=eastwest;part=1;" vertex="1" connectable="0" parent="4a63a70a29bb4ada-43">
          <mxGeometry width="30" height="10" as="geometry" />
        </mxCell>
        <mxCell id="4a63a70a29bb4ada-18" value="Coaches" style="swimlane;fontStyle=0;childLayout=stackLayout;horizontal=1;startSize=26;fillColor=#ffe6cc;horizontalStack=0;resizeParent=1;resizeParentMax=0;resizeLast=0;collapsible=1;marginBottom=0;swimlaneFillColor=#ffffff;align=center;strokeWidth=1;fontSize=13;strokeColor=#d79b00;" vertex="1" parent="1">
          <mxGeometry x="82" y="280" width="160" height="92" as="geometry" />
        </mxCell>
        <mxCell id="4a63a70a29bb4ada-19" value="CoachID" style="shape=partialRectangle;top=0;left=0;right=0;bottom=1;align=left;verticalAlign=middle;fillColor=none;spacingLeft=34;spacingRight=4;overflow=hidden;rotatable=0;points=[[0,0.5],[1,0.5]];portConstraint=eastwest;dropTarget=0;fontStyle=5;" vertex="1" parent="4a63a70a29bb4ada-18">
          <mxGeometry y="26" width="160" height="30" as="geometry" />
        </mxCell>
        <mxCell id="4a63a70a29bb4ada-20" value="PK" style="shape=partialRectangle;top=0;left=0;bottom=0;fillColor=none;align=left;verticalAlign=middle;spacingLeft=4;spacingRight=4;overflow=hidden;rotatable=0;points=[];portConstraint=eastwest;part=1;" vertex="1" connectable="0" parent="4a63a70a29bb4ada-19">
          <mxGeometry width="30" height="30" as="geometry" />
        </mxCell>
        <mxCell id="4a63a70a29bb4ada-23" value="Name" style="shape=partialRectangle;top=0;left=0;right=0;bottom=0;align=left;verticalAlign=top;fillColor=none;spacingLeft=34;spacingRight=4;overflow=hidden;rotatable=0;points=[[0,0.5],[1,0.5]];portConstraint=eastwest;dropTarget=0;" vertex="1" parent="4a63a70a29bb4ada-18">
          <mxGeometry y="56" width="160" height="26" as="geometry" />
        </mxCell>
        <mxCell id="4a63a70a29bb4ada-24" value="" style="shape=partialRectangle;top=0;left=0;bottom=0;fillColor=none;align=left;verticalAlign=top;spacingLeft=4;spacingRight=4;overflow=hidden;rotatable=0;points=[];portConstraint=eastwest;part=1;" vertex="1" connectable="0" parent="4a63a70a29bb4ada-23">
          <mxGeometry width="30" height="26" as="geometry" />
        </mxCell>
        <mxCell id="4a63a70a29bb4ada-29" value="" style="shape=partialRectangle;top=0;left=0;right=0;bottom=0;align=left;verticalAlign=top;fillColor=none;spacingLeft=34;spacingRight=4;overflow=hidden;rotatable=0;points=[[0,0.5],[1,0.5]];portConstraint=eastwest;dropTarget=0;" vertex="1" parent="4a63a70a29bb4ada-18">
          <mxGeometry y="82" width="160" height="10" as="geometry" />
        </mxCell>
        <mxCell id="4a63a70a29bb4ada-30" value="" style="shape=partialRectangle;top=0;left=0;bottom=0;fillColor=none;align=left;verticalAlign=top;spacingLeft=4;spacingRight=4;overflow=hidden;rotatable=0;points=[];portConstraint=eastwest;part=1;" vertex="1" connectable="0" parent="4a63a70a29bb4ada-29">
          <mxGeometry width="30" height="10" as="geometry" />
        </mxCell>
        <mxCell id="4a63a70a29bb4ada-48" value="" style="edgeStyle=none;rounded=0;html=1;startArrow=ERmandOne;startFill=0;endArrow=ERzeroToMany;endFill=1;jettySize=auto;orthogonalLoop=1;strokeColor=#000066;fontSize=10;" edge="1" source="4a63a70a29bb4ada-12" target="4a63a70a29bb4ada-26" parent="1">
          <mxGeometry relative="1" as="geometry" />
        </mxCell>
        <mxCell id="4a63a70a29bb4ada-12" value="Checkins" style="swimlane;fontStyle=0;childLayout=stackLayout;horizontal=1;startSize=26;fillColor=#ffe6cc;horizontalStack=0;resizeParent=1;resizeParentMax=0;resizeLast=0;collapsible=1;marginBottom=0;swimlaneFillColor=#ffffff;align=center;strokeWidth=1;fontSize=13;strokeColor=#d79b00;" vertex="1" parent="1">
          <mxGeometry x="655" y="67" width="160" height="134" as="geometry" />
        </mxCell>
        <mxCell id="4a63a70a29bb4ada-13" value="HabitCheckinID" style="shape=partialRectangle;top=0;left=0;right=0;bottom=1;align=left;verticalAlign=middle;fillColor=none;spacingLeft=34;spacingRight=4;overflow=hidden;rotatable=0;points=[[0,0.5],[1,0.5]];portConstraint=eastwest;dropTarget=0;fontStyle=5;" vertex="1" parent="4a63a70a29bb4ada-12">
          <mxGeometry y="26" width="160" height="30" as="geometry" />
        </mxCell>
        <mxCell id="4a63a70a29bb4ada-14" value="PK" style="shape=partialRectangle;top=0;left=0;bottom=0;fillColor=none;align=left;verticalAlign=middle;spacingLeft=4;spacingRight=4;overflow=hidden;rotatable=0;points=[];portConstraint=eastwest;part=1;" vertex="1" connectable="0" parent="4a63a70a29bb4ada-13">
          <mxGeometry width="30" height="30" as="geometry" />
        </mxCell>
        <mxCell id="4a63a70a29bb4ada-15" value="HabitID" style="shape=partialRectangle;top=0;left=0;right=0;bottom=0;align=left;verticalAlign=bottom;fillColor=none;spacingLeft=34;spacingRight=4;overflow=hidden;rotatable=0;points=[[0,0.5],[1,0.5]];portConstraint=eastwest;dropTarget=0;fontStyle=2" vertex="1" parent="4a63a70a29bb4ada-12">
          <mxGeometry y="56" width="160" height="26" as="geometry" />
        </mxCell>
        <mxCell id="4a63a70a29bb4ada-25" value="FK" style="shape=partialRectangle;top=0;left=0;bottom=0;fillColor=none;align=left;verticalAlign=top;spacingLeft=4;spacingRight=4;overflow=hidden;rotatable=0;points=[];portConstraint=eastwest;part=1;fontStyle=2" vertex="1" connectable="0" parent="4a63a70a29bb4ada-15">
          <mxGeometry width="30" height="26" as="geometry" />
        </mxCell>
        <mxCell id="5ecfb9fce94ea102-5" value="UserID" style="shape=partialRectangle;top=0;left=0;right=0;bottom=0;align=left;verticalAlign=bottom;fillColor=none;spacingLeft=34;spacingRight=4;overflow=hidden;rotatable=0;points=[[0,0.5],[1,0.5]];portConstraint=eastwest;dropTarget=0;fontStyle=2" vertex="1" parent="4a63a70a29bb4ada-12">
          <mxGeometry y="82" width="160" height="26" as="geometry" />
        </mxCell>
        <mxCell id="5ecfb9fce94ea102-6" value="FK" style="shape=partialRectangle;top=0;left=0;bottom=0;fillColor=none;align=left;verticalAlign=top;spacingLeft=4;spacingRight=4;overflow=hidden;rotatable=0;points=[];portConstraint=eastwest;part=1;fontStyle=2" vertex="1" connectable="0" parent="5ecfb9fce94ea102-5">
          <mxGeometry width="30" height="26" as="geometry" />
        </mxCell>
        <mxCell id="4f2698fda814bacb-1" value="CheckinDate" style="shape=partialRectangle;top=0;left=0;right=0;bottom=0;align=left;verticalAlign=top;fillColor=none;spacingLeft=34;spacingRight=4;overflow=hidden;rotatable=0;points=[[0,0.5],[1,0.5]];portConstraint=eastwest;dropTarget=0;" vertex="1" parent="4a63a70a29bb4ada-12">
          <mxGeometry y="108" width="160" height="26" as="geometry" />
        </mxCell>
        <mxCell id="4f2698fda814bacb-2" value="" style="shape=partialRectangle;top=0;left=0;bottom=0;fillColor=none;align=left;verticalAlign=top;spacingLeft=4;spacingRight=4;overflow=hidden;rotatable=0;points=[];portConstraint=eastwest;part=1;" vertex="1" connectable="0" parent="4f2698fda814bacb-1">
          <mxGeometry width="30" height="26" as="geometry" />
        </mxCell>
        <mxCell id="4a63a70a29bb4ada-26" value="Comments" style="swimlane;fontStyle=0;childLayout=stackLayout;horizontal=1;startSize=26;fillColor=#ffe6cc;horizontalStack=0;resizeParent=1;resizeParentMax=0;resizeLast=0;collapsible=1;marginBottom=0;swimlaneFillColor=#ffffff;align=center;strokeWidth=1;fontSize=13;strokeColor=#d79b00;" vertex="1" parent="1">
          <mxGeometry x="655" y="264" width="160" height="196" as="geometry" />
        </mxCell>
        <mxCell id="4a63a70a29bb4ada-27" value="CommentID" style="shape=partialRectangle;top=0;left=0;right=0;bottom=1;align=left;verticalAlign=middle;fillColor=none;spacingLeft=34;spacingRight=4;overflow=hidden;rotatable=0;points=[[0,0.5],[1,0.5]];portConstraint=eastwest;dropTarget=0;fontStyle=5;" vertex="1" parent="4a63a70a29bb4ada-26">
          <mxGeometry y="26" width="160" height="30" as="geometry" />
        </mxCell>
        <mxCell id="4a63a70a29bb4ada-28" value="PK" style="shape=partialRectangle;top=0;left=0;bottom=0;fillColor=none;align=left;verticalAlign=middle;spacingLeft=4;spacingRight=4;overflow=hidden;rotatable=0;points=[];portConstraint=eastwest;part=1;fontStyle=1" vertex="1" connectable="0" parent="4a63a70a29bb4ada-27">
          <mxGeometry width="30" height="30" as="geometry" />
        </mxCell>
        <mxCell id="4a63a70a29bb4ada-51" value="HabitCheckinID&#xa;" style="shape=partialRectangle;top=0;left=0;right=0;bottom=0;align=left;verticalAlign=top;fillColor=none;spacingLeft=34;spacingRight=4;overflow=hidden;rotatable=0;points=[[0,0.5],[1,0.5]];portConstraint=eastwest;dropTarget=0;fontStyle=2" vertex="1" parent="4a63a70a29bb4ada-26">
          <mxGeometry y="56" width="160" height="26" as="geometry" />
        </mxCell>
        <mxCell id="4a63a70a29bb4ada-52" value="FK" style="shape=partialRectangle;top=0;left=0;bottom=0;fillColor=none;align=left;verticalAlign=top;spacingLeft=4;spacingRight=4;overflow=hidden;rotatable=0;points=[];portConstraint=eastwest;part=1;fontStyle=2" vertex="1" connectable="0" parent="4a63a70a29bb4ada-51">
          <mxGeometry width="30" height="26" as="geometry" />
        </mxCell>
        <mxCell id="5ecfb9fce94ea102-3" value="UserID&#xa;" style="shape=partialRectangle;top=0;left=0;right=0;bottom=0;align=left;verticalAlign=top;fillColor=none;spacingLeft=34;spacingRight=4;overflow=hidden;rotatable=0;points=[[0,0.5],[1,0.5]];portConstraint=eastwest;dropTarget=0;fontStyle=2" vertex="1" parent="4a63a70a29bb4ada-26">
          <mxGeometry y="82" width="160" height="26" as="geometry" />
        </mxCell>
        <mxCell id="5ecfb9fce94ea102-4" value="FK" style="shape=partialRectangle;top=0;left=0;bottom=0;fillColor=none;align=left;verticalAlign=top;spacingLeft=4;spacingRight=4;overflow=hidden;rotatable=0;points=[];portConstraint=eastwest;part=1;fontStyle=2" vertex="1" connectable="0" parent="5ecfb9fce94ea102-3">
          <mxGeometry width="30" height="26" as="geometry" />
        </mxCell>
        <mxCell id="113bda5a66023eaa-7" value="CoachID&#xa;" style="shape=partialRectangle;top=0;left=0;right=0;bottom=0;align=left;verticalAlign=top;fillColor=none;spacingLeft=34;spacingRight=4;overflow=hidden;rotatable=0;points=[[0,0.5],[1,0.5]];portConstraint=eastwest;dropTarget=0;fontStyle=2" vertex="1" parent="4a63a70a29bb4ada-26">
          <mxGeometry y="108" width="160" height="26" as="geometry" />
        </mxCell>
        <mxCell id="113bda5a66023eaa-8" value="FK" style="shape=partialRectangle;top=0;left=0;bottom=0;fillColor=none;align=left;verticalAlign=top;spacingLeft=4;spacingRight=4;overflow=hidden;rotatable=0;points=[];portConstraint=eastwest;part=1;fontStyle=2" vertex="1" connectable="0" parent="113bda5a66023eaa-7">
          <mxGeometry width="30" height="26" as="geometry" />
        </mxCell>
        <mxCell id="4a63a70a29bb4ada-53" value="CommentDate" style="shape=partialRectangle;top=0;left=0;right=0;bottom=0;align=left;verticalAlign=top;fillColor=none;spacingLeft=34;spacingRight=4;overflow=hidden;rotatable=0;points=[[0,0.5],[1,0.5]];portConstraint=eastwest;dropTarget=0;fontStyle=0" vertex="1" parent="4a63a70a29bb4ada-26">
          <mxGeometry y="134" width="160" height="26" as="geometry" />
        </mxCell>
        <mxCell id="4a63a70a29bb4ada-54" value="" style="shape=partialRectangle;top=0;left=0;bottom=0;fillColor=none;align=left;verticalAlign=top;spacingLeft=4;spacingRight=4;overflow=hidden;rotatable=0;points=[];portConstraint=eastwest;part=1;" vertex="1" connectable="0" parent="4a63a70a29bb4ada-53">
          <mxGeometry width="30" height="26" as="geometry" />
        </mxCell>
        <mxCell id="4a63a70a29bb4ada-35" value="CommentText" style="shape=partialRectangle;top=0;left=0;right=0;bottom=0;align=left;verticalAlign=top;fillColor=none;spacingLeft=34;spacingRight=4;overflow=hidden;rotatable=0;points=[[0,0.5],[1,0.5]];portConstraint=eastwest;dropTarget=0;fontStyle=0" vertex="1" parent="4a63a70a29bb4ada-26">
          <mxGeometry y="160" width="160" height="26" as="geometry" />
        </mxCell>
        <mxCell id="4a63a70a29bb4ada-42" value="" style="shape=partialRectangle;top=0;left=0;bottom=0;fillColor=none;align=left;verticalAlign=top;spacingLeft=4;spacingRight=4;overflow=hidden;rotatable=0;points=[];portConstraint=eastwest;part=1;" vertex="1" connectable="0" parent="4a63a70a29bb4ada-35">
          <mxGeometry width="30" height="26" as="geometry" />
        </mxCell>
        <mxCell id="4a63a70a29bb4ada-46" value="" style="shape=partialRectangle;top=0;left=0;right=0;bottom=0;align=left;verticalAlign=top;fillColor=none;spacingLeft=34;spacingRight=4;overflow=hidden;rotatable=0;points=[[0,0.5],[1,0.5]];portConstraint=eastwest;dropTarget=0;" vertex="1" parent="4a63a70a29bb4ada-26">
          <mxGeometry y="186" width="160" height="10" as="geometry" />
        </mxCell>
        <mxCell id="4a63a70a29bb4ada-47" value="" style="shape=partialRectangle;top=0;left=0;bottom=0;fillColor=none;align=left;verticalAlign=top;spacingLeft=4;spacingRight=4;overflow=hidden;rotatable=0;points=[];portConstraint=eastwest;part=1;" vertex="1" connectable="0" parent="4a63a70a29bb4ada-46">
          <mxGeometry width="30" height="10" as="geometry" />
        </mxCell>
        <mxCell id="4f2698fda814bacb-14" value="UserHabits" style="swimlane;fontStyle=0;childLayout=stackLayout;horizontal=1;startSize=26;fillColor=#ffe6cc;horizontalStack=0;resizeParent=1;resizeParentMax=0;resizeLast=0;collapsible=1;marginBottom=0;swimlaneFillColor=#ffffff;align=center;fontSize=13;dashed=1;strokeColor=#d79b00;strokeWidth=1;" vertex="1" parent="1">
          <mxGeometry x="258" y="144" width="160" height="116" as="geometry" />
        </mxCell>
        <mxCell id="4f2698fda814bacb-15" value="UserHabitID" style="shape=partialRectangle;top=0;left=0;right=0;bottom=1;align=left;verticalAlign=middle;fillColor=none;spacingLeft=60;spacingRight=4;overflow=hidden;rotatable=0;points=[[0,0.5],[1,0.5]];portConstraint=eastwest;dropTarget=0;fontStyle=5;fontSize=12;strokeColor=#000000;perimeterSpacing=0;" vertex="1" parent="4f2698fda814bacb-14">
          <mxGeometry y="26" width="160" height="30" as="geometry" />
        </mxCell>
        <mxCell id="4f2698fda814bacb-16" value="PK" style="shape=partialRectangle;fontStyle=1;top=0;left=0;bottom=0;fillColor=none;align=left;verticalAlign=middle;spacingLeft=4;spacingRight=4;overflow=hidden;rotatable=0;points=[];portConstraint=eastwest;part=1;fontSize=12;" vertex="1" connectable="0" parent="4f2698fda814bacb-15">
          <mxGeometry width="56" height="30" as="geometry" />
        </mxCell>
        <mxCell id="113bda5a66023eaa-1" value="UserID" style="shape=partialRectangle;top=0;left=0;right=0;bottom=0;align=left;verticalAlign=middle;fillColor=none;spacingLeft=60;spacingRight=4;overflow=hidden;rotatable=0;points=[[0,0.5],[1,0.5]];portConstraint=eastwest;dropTarget=0;fontStyle=2;fontSize=12;strokeColor=none;" vertex="1" parent="4f2698fda814bacb-14">
          <mxGeometry y="56" width="160" height="30" as="geometry" />
        </mxCell>
        <mxCell id="113bda5a66023eaa-2" value="FK1" style="shape=partialRectangle;fontStyle=2;top=0;left=0;bottom=0;fillColor=none;align=left;verticalAlign=middle;spacingLeft=4;spacingRight=4;overflow=hidden;rotatable=0;points=[];portConstraint=eastwest;part=1;fontSize=12;" vertex="1" connectable="0" parent="113bda5a66023eaa-1">
          <mxGeometry width="56" height="30" as="geometry" />
        </mxCell>
        <mxCell id="4f2698fda814bacb-17" value="HabitID" style="shape=partialRectangle;top=0;left=0;right=0;bottom=1;align=left;verticalAlign=middle;fillColor=none;spacingLeft=60;spacingRight=4;overflow=hidden;rotatable=0;points=[[0,0.5],[1,0.5]];portConstraint=eastwest;dropTarget=0;fontStyle=2;fontSize=12;dashed=1;strokeColor=#D79B00;" vertex="1" parent="4f2698fda814bacb-14">
          <mxGeometry y="86" width="160" height="30" as="geometry" />
        </mxCell>
        <mxCell id="4f2698fda814bacb-18" value="FK2" style="shape=partialRectangle;fontStyle=2;top=0;left=0;bottom=0;fillColor=none;align=left;verticalAlign=middle;spacingLeft=4;spacingRight=4;overflow=hidden;rotatable=0;points=[];portConstraint=eastwest;part=1;fontSize=12;" vertex="1" connectable="0" parent="4f2698fda814bacb-17">
          <mxGeometry width="56" height="30" as="geometry" />
        </mxCell>
        <mxCell id="4f2698fda814bacb-22" value="" style="endArrow=none;dashed=1;html=1;strokeColor=#000066;fontSize=13;rounded=0;edgeStyle=orthogonalEdgeStyle;entryX=0.5;entryY=0;" edge="1" source="4a63a70a29bb4ada-1" target="4f2698fda814bacb-14" parent="1">
          <mxGeometry width="50" height="50" relative="1" as="geometry">
            <mxPoint x="110" y="630" as="sourcePoint" />
            <mxPoint x="160" y="580" as="targetPoint" />
          </mxGeometry>
        </mxCell>
        <mxCell id="4f2698fda814bacb-24" value="" style="endArrow=none;dashed=1;html=1;strokeColor=#000066;fontSize=13;rounded=0;edgeStyle=orthogonalEdgeStyle;entryX=0.5;entryY=0;" edge="1" source="4a63a70a29bb4ada-32" target="4f2698fda814bacb-14" parent="1">
          <mxGeometry width="50" height="50" relative="1" as="geometry">
            <mxPoint x="250" y="136.33333333333337" as="sourcePoint" />
            <mxPoint x="348.33333333333337" y="161.66666666666663" as="targetPoint" />
          </mxGeometry>
        </mxCell>
        <mxCell id="5ecfb9fce94ea102-1" style="edgeStyle=none;rounded=0;html=1;startArrow=ERmandOne;startFill=0;endArrow=ERzeroToMany;endFill=1;jettySize=auto;orthogonalLoop=1;strokeColor=#000066;fontSize=13;exitX=1;exitY=0.5;entryX=0;entryY=0.5;" edge="1" source="4a63a70a29bb4ada-33" target="4a63a70a29bb4ada-13" parent="1">
          <mxGeometry relative="1" as="geometry">
            <mxPoint x="589" y="99" as="sourcePoint" />
            <mxPoint x="725" y="99" as="targetPoint" />
          </mxGeometry>
        </mxCell>
        <mxCell id="5ecfb9fce94ea102-2" style="edgeStyle=orthogonalEdgeStyle;rounded=0;html=1;exitX=0.5;exitY=0;entryX=1;entryY=0.5;startArrow=none;startFill=0;endArrow=none;endFill=0;jettySize=auto;orthogonalLoop=1;strokeColor=none;fontSize=13;dashed=1;" edge="1" target="4a63a70a29bb4ada-33" parent="1">
          <mxGeometry relative="1" as="geometry">
            <mxPoint x="633" y="174" as="sourcePoint" />
          </mxGeometry>
        </mxCell>
      </root>
    </mxGraphModel>
  </diagram>
</mxfile>
